<svg width="64" height="64" version="1.1" viewBox="0 0 64 64" xmlns="http://www.w3.org/2000/svg">
    <rect fill="none" height="63.96" stroke="hsl(0, 0% 86%)" stroke-width=".12px" width="63.96" x="0.02" y="0.02"/>
    <line stroke="hsla(0, 0%, 86%, 0.27588764)" stroke-width="0.088284045px" x1="41.455086" x2="41.984444" y1="32" y2="32.197304"/>
<line stroke="hsla(0, 0%, 86%, 0.2300065)" stroke-width="0.07360208px" x1="41.984444" x2="41.648506" y1="32.197304" y2="32.381477"/>
<line stroke="hsla(0, 0%, 86%, 0.10872561)" stroke-width="0.034792192px" x1="41.648506" x2="40.7674" y1="32.381477" y2="32.520298"/>
<line stroke="hsla(0, 0%, 86%, 0.02494891)" stroke-width="0.007983651px" x1="40.7674" x2="40.1541" y1="32.520298" y2="32.645794"/>
<line stroke="hsla(0, 0%, 86%, 0.0349787)" stroke-width="0.011193183px" x1="40.1541" x2="40.21161" y1="32.645794" y2="32.813892"/>
<line stroke="hsla(0, 0%, 86%, 0.35280395)" stroke-width="0.11289726px" x1="40.21161" x2="42.46621" y1="32.813892" y2="33.24662"/>
<line stroke="hsla(0, 0%, 86%, 0.3076975)" stroke-width="0.0984632px" x1="42.46621" x2="42.11787" y1="33.24662" y2="33.408386"/>
<line stroke="hsla(0, 0%, 86%, 0.37663093)" stroke-width="0.120521896px" x1="42.11787" x2="42.5782" y1="33.408386" y2="33.68614"/>
<line stroke="hsla(0, 0%, 86%, 0.39735672)" stroke-width="0.12715414px" x1="42.5782" x2="42.689697" y1="33.68614" y2="33.9212"/>
<line stroke="hsla(0, 0%, 86%, 0.33577147)" stroke-width="0.10744687px" x1="42.689697" x2="42.214867" y1="33.9212" y2="34.04498"/>
<line stroke="hsla(0, 0%, 86%, 0.33996996)" stroke-width="0.10879038px" x1="42.214867" x2="42.20199" y1="34.04498" y2="34.252914"/>
<line stroke="hsla(0, 0%, 86%, 0.3777096)" stroke-width="0.120867066px" x1="42.20199" x2="42.41961" y1="34.252914" y2="34.517864"/>
<line stroke="hsla(0, 0%, 86%, 0.27807942)" stroke-width="0.08898541px" x1="42.41961" x2="41.674026" y1="34.517864" y2="34.540997"/>
<line stroke="hsla(0, 0%, 86%, 0.29562148)" stroke-width="0.094598874px" x1="41.674026" x2="41.743435" y1="34.540997" y2="34.76613"/>
<line stroke="hsla(0, 0%, 86%, 0.25205275)" stroke-width="0.08065688px" x1="41.743435" x2="41.386864" y1="34.76613" y2="34.86647"/>
<line stroke="hsla(0, 0%, 86%, 0.27678922)" stroke-width="0.08857255px" x1="41.386864" x2="41.497677" y1="34.86647" y2="35.106743"/>
<line stroke="hsla(0, 0%, 86%, 0.34455046)" stroke-width="0.11025614px" x1="41.497677" x2="41.895058" y1="35.106743" y2="35.454594"/>
<line stroke="hsla(0, 0%, 86%, 0.34138343)" stroke-width="0.10924269px" x1="41.895058" x2="41.803497" y1="35.454594" y2="35.64148"/>
<line stroke="hsla(0, 0%, 86%, 0.31142902)" stroke-width="0.09965728px" x1="41.803497" x2="41.528988" y1="35.64148" y2="35.75538"/>
<line stroke="hsla(0, 0%, 86%, 0.36484084)" stroke-width="0.11674906px" x1="41.528988" x2="41.807858" y1="35.75538" y2="36.090958"/>
<line stroke="hsla(0, 0%, 86%, 0.25378677)" stroke-width="0.08121177px" x1="41.807858" x2="40.993378" y1="36.090958" y2="35.9616"/>
<line stroke="hsla(0, 0%, 86%, 0.13082947)" stroke-width="0.04186543px" x1="40.993378" x2="40.11039" y1="35.9616" y2="35.765694"/>
<line stroke="hsla(0, 0%, 86%, 0.2777494)" stroke-width="0.0888798px" x1="40.11039" x2="40.984867" y1="35.765694" y2="36.38954"/>
<line stroke="hsla(0, 0%, 86%, 0.39461318)" stroke-width="0.12627621px" x1="40.984867" x2="41.644966" y1="36.38954" y2="36.950417"/>
<line stroke="hsla(0, 0%, 86%, 0.35018155)" stroke-width="0.112058096px" x1="41.644966" x2="41.263607" y1="36.950417" y2="36.98833"/>
<line stroke="hsla(0, 0%, 86%, 0.4344643)" stroke-width="0.13902858px" x1="41.263607" x2="41.691753" y1="36.98833" y2="37.468594"/>
<line stroke="hsla(0, 0%, 86%, 0.4171723)" stroke-width="0.13349514px" x1="41.691753" x2="41.474617" y1="37.468594" y2="37.595695"/>
<line stroke="hsla(0, 0%, 86%, 0.34902486)" stroke-width="0.11168795px" x1="41.474617" x2="40.94474" y1="37.595695" y2="37.52398"/>
<line stroke="hsla(0, 0%, 86%, 0.39103475)" stroke-width="0.12513112px" x1="40.94474" x2="41.08802" y1="37.52398" y2="37.863605"/>
<line stroke="hsla(0, 0%, 86%, 0.38735867)" stroke-width="0.12395477px" x1="41.08802" x2="40.948444" y1="37.863605" y2="38.02723"/>
<line stroke="hsla(0, 0%, 86%, 0.34935775)" stroke-width="0.11179448px" x1="40.948444" x2="40.60375" y1="38.02723" y2="38.045547"/>
<line stroke="hsla(0, 0%, 86%, 0.4402011)" stroke-width="0.14086436px" x1="40.60375" x2="41.010258" y1="38.045547" y2="38.600895"/>
<line stroke="hsla(0, 0%, 86%, 0.6113804)" stroke-width="0.19564173px" x1="41.010258" x2="41.857735" y1="38.600895" y2="39.525497"/>
<line stroke="hsla(0, 0%, 86%, 0.4270392)" stroke-width="0.13665254px" x1="41.857735" x2="40.668274" y1="39.525497" y2="38.892723"/>
<line stroke="hsla(0, 0%, 86%, 0.54904497)" stroke-width="0.17569439px" x1="40.668274" x2="41.207027" y1="38.892723" y2="39.62285"/>
<line stroke="hsla(0, 0%, 86%, 0.583024)" stroke-width="0.18656768px" x1="41.207027" x2="41.239952" y1="39.62285" y2="39.962975"/>
<line stroke="hsla(0, 0%, 86%, 0.60257643)" stroke-width="0.19282445px" x1="41.239952" x2="41.185623" y1="39.962975" y2="40.23797"/>
<line stroke="hsla(0, 0%, 86%, 0.6355494)" stroke-width="0.20337582px" x1="41.185623" x2="41.19465" y1="40.23797" y2="40.57981"/>
<line stroke="hsla(0, 0%, 86%, 0.6322883)" stroke-width="0.20233224px" x1="41.19465" x2="41.006493" y1="40.57981" y2="40.74344"/>
<line stroke="hsla(0, 0%, 86%, 0.5857875)" stroke-width="0.18745199px" x1="41.006493" x2="40.596416" y1="40.74344" y2="40.681767"/>
<line stroke="hsla(0, 0%, 86%, 0.6039543)" stroke-width="0.19326538px" x1="40.596416" x2="40.51339" y1="40.681767" y2="40.944656"/>
<line stroke="hsla(0, 0%, 86%, 0.53915656)" stroke-width="0.1725301px" x1="40.51339" x2="40.0201" y1="40.944656" y2="40.766884"/>
<line stroke="hsla(0, 0%, 86%, 0.57549495)" stroke-width="0.18415838px" x1="40.0201" x2="40.018078" y1="40.766884" y2="41.12012"/>
<line stroke="hsla(0, 0%, 86%, 0.495773)" stroke-width="0.15864736px" x1="40.018078" x2="39.46592" y1="41.12012" y2="40.838264"/>
<line stroke="hsla(0, 0%, 86%, 0.62848943)" stroke-width="0.20111662px" x1="39.46592" x2="39.89193" y1="40.838264" y2="41.72606"/>
<line stroke="hsla(0, 0%, 86%, 0.56028813)" stroke-width="0.1792922px" x1="39.89193" x2="39.39642" y1="41.72606" y2="41.49273"/>
<line stroke="hsla(0, 0%, 86%, 0.5677063)" stroke-width="0.181666px" x1="39.39642" x2="39.239414" y1="41.49273" y2="41.679783"/>
<line stroke="hsla(0, 0%, 86%, 0.60513896)" stroke-width="0.19364446px" x1="39.239414" x2="39.203876" y1="41.679783" y2="42.0399"/>
<line stroke="hsla(0, 0%, 86%, 0.65729785)" stroke-width="0.21033531px" x1="39.203876" x2="39.216976" y1="42.0399" y2="42.48966"/>
<line stroke="hsla(0, 0%, 86%, 0.64236987)" stroke-width="0.20555836px" x1="39.216976" x2="38.94916" y1="42.48966" y2="42.540466"/>
<line stroke="hsla(0, 0%, 86%, 0.65961784)" stroke-width="0.2110777px" x1="38.94916" x2="38.805847" y1="42.540466" y2="42.780712"/>
<line stroke="hsla(0, 0%, 86%, 0.63244814)" stroke-width="0.2023834px" x1="38.805847" x2="38.490383" y1="42.780712" y2="42.745625"/>
<line stroke="hsla(0, 0%, 86%, 0.6104131)" stroke-width="0.19533218px" x1="38.490383" x2="38.197487" y1="42.745625" y2="42.734364"/>
<line stroke="hsla(0, 0%, 86%, 0.56250256)" stroke-width="0.18000081px" x1="38.197487" x2="37.817654" y1="42.734364" y2="42.55262"/>
<line stroke="hsla(0, 0%, 86%, 0.6241541)" stroke-width="0.19972931px" x1="37.817654" x2="37.814613" y1="42.55262" y2="43.05839"/>
<line stroke="hsla(0, 0%, 86%, 0.5010158)" stroke-width="0.16032505px" x1="37.814613" x2="37.197964" y1="43.05839" y2="42.378387"/>
<line stroke="hsla(0, 0%, 86%, 0.6630021)" stroke-width="0.21216066px" x1="37.197964" x2="37.49349" y1="42.378387" y2="43.53199"/>
<line stroke="hsla(0, 0%, 86%, 0.59086716)" stroke-width="0.18907748px" x1="37.49349" x2="37.05052" y1="43.53199" y2="43.16507"/>
<line stroke="hsla(0, 0%, 86%, 0.5294957)" stroke-width="0.16943863px" x1="37.05052" x2="36.654816" y1="43.16507" y2="42.856552"/>
<line stroke="hsla(0, 0%, 86%, 0.6376073)" stroke-width="0.20403433px" x1="36.654816" x2="36.73196" y1="42.856552" y2="43.66774"/>
<line stroke="hsla(0, 0%, 86%, 0.67477083)" stroke-width="0.21592666px" x1="36.73196" x2="36.59616" y1="43.66774" y2="44.00885"/>
<line stroke="hsla(0, 0%, 86%, 0.64838856)" stroke-width="0.20748433px" x1="36.59616" x2="36.29362" y1="44.00885" y2="43.918602"/>
<line stroke="hsla(0, 0%, 86%, 0.6990887)" stroke-width="0.22370838px" x1="36.29362" x2="36.174217" y1="43.918602" y2="44.34692"/>
<line stroke="hsla(0, 0%, 86%, 0.67507976)" stroke-width="0.21602552px" x1="36.174217" x2="35.877346" y1="44.34692" y2="44.26216"/>
<line stroke="hsla(0, 0%, 86%, 0.6423862)" stroke-width="0.20556358px" x1="35.877346" x2="35.567802" y1="44.26216" y2="44.110573"/>
<line stroke="hsla(0, 0%, 86%, 0.55094904)" stroke-width="0.17630368px" x1="35.567802" x2="35.154305" y1="44.110573" y2="43.543633"/>
<line stroke="hsla(0, 0%, 86%, 0.6099118)" stroke-width="0.19517177px" x1="35.154305" x2="35.029408" y1="43.543633" y2="44.01535"/>
<line stroke="hsla(0, 0%, 86%, 0.45721892)" stroke-width="0.14631005px" x1="35.029408" x2="34.543766" y1="44.01535" y2="43.001728"/>
<line stroke="hsla(0, 0%, 86%, 0.6628375)" stroke-width="0.212108px" x1="34.543766" x2="34.630848" y1="43.001728" y2="44.498543"/>
<line stroke="hsla(0, 0%, 86%, 0.59061)" stroke-width="0.1889952px" x1="34.630848" x2="34.286358" y1="44.498543" y2="44.037178"/>
<line stroke="hsla(0, 0%, 86%, 0.5294862)" stroke-width="0.16943558px" x1="34.286358" x2="33.974525" y1="44.037178" y2="43.646103"/>
<line stroke="hsla(0, 0%, 86%, 0.64312965)" stroke-width="0.20580149px" x1="33.974525" x2="33.864853" y1="43.646103" y2="44.492104"/>
<line stroke="hsla(0, 0%, 86%, 0.7079047)" stroke-width="0.2265295px" x1="33.864853" x2="33.677414" y1="44.492104" y2="44.98905"/>
<line stroke="hsla(0, 0%, 86%, 0.6771014)" stroke-width="0.21667244px" x1="33.677414" x2="33.396408" y1="44.98905" y2="44.79918"/>
<line stroke="hsla(0, 0%, 86%, 0.69277734)" stroke-width="0.22168875px" x1="33.396408" x2="33.153282" y1="44.79918" y2="44.93669"/>
<line stroke="hsla(0, 0%, 86%, 0.65869206)" stroke-width="0.21078146px" x1="33.153282" x2="32.880505" y1="44.93669" y2="44.712124"/>
<line stroke="hsla(0, 0%, 86%, 0.5797701)" stroke-width="0.18552643px" x1="32.880505" x2="32.60112" y1="44.712124" y2="44.159496"/>
<line stroke="hsla(0, 0%, 86%, 0.6111912)" stroke-width="0.19558118px" x1="32.60112" x2="32.36747" y1="44.159496" y2="44.395134"/>
<line stroke="hsla(0, 0%, 86%, 0.6751942)" stroke-width="0.21606214px" x1="32.36747" x2="32.12706" y1="44.395134" y2="44.86077"/>
<line stroke="hsla(0, 0%, 86%, 0.5344474)" stroke-width="0.17102316px" x1="32.12706" x2="31.882952" y1="44.86077" y2="43.847443"/>
<line stroke="hsla(0, 0%, 86%, 0.62384903)" stroke-width="0.19963169px" x1="31.882952" x2="31.629827" y1="43.847443" y2="44.48623"/>
<line stroke="hsla(0, 0%, 86%, 0.5389905)" stroke-width="0.17247696px" x1="31.629827" x2="31.413376" y1="44.48623" y2="43.86624"/>
<line stroke="hsla(0, 0%, 86%, 0.53000045)" stroke-width="0.16960014px" x1="31.413376" x2="31.18352" y1="43.86624" y2="43.78776"/>
<line stroke="hsla(0, 0%, 86%, 0.63384616)" stroke-width="0.20283076px" x1="31.18352" x2="30.884396" y1="43.78776" y2="44.51406"/>
<line stroke="hsla(0, 0%, 86%, 0.6844426)" stroke-width="0.21902162px" x1="30.884396" x2="30.59786" y1="44.51406" y2="44.851727"/>
<line stroke="hsla(0, 0%, 86%, 0.6151031)" stroke-width="0.196833px" x1="30.59786" x2="30.408163" y1="44.851727" y2="44.32638"/>
<line stroke="hsla(0, 0%, 86%, 0.6988442)" stroke-width="0.22363013px" x1="30.408163" x2="30.075918" y1="44.32638" y2="44.888855"/>
<line stroke="hsla(0, 0%, 86%, 0.6754193)" stroke-width="0.21613416px" x1="30.075918" x2="29.849838" y1="44.888855" y2="44.682037"/>
<line stroke="hsla(0, 0%, 86%, 0.6423312)" stroke-width="0.20554598px" x1="29.849838" x2="29.644154" y1="44.682037" y2="44.40303"/>
<line stroke="hsla(0, 0%, 86%, 0.5493982)" stroke-width="0.17580742px" x1="29.644154" x2="29.537388" y1="44.40303" y2="43.699295"/>
<line stroke="hsla(0, 0%, 86%, 0.60945505)" stroke-width="0.19502561px" x1="29.537388" x2="29.209316" y1="43.699295" y2="44.069653"/>
<line stroke="hsla(0, 0%, 86%, 0.45850325)" stroke-width="0.14672104px" x1="29.209316" x2="29.237106" y1="44.069653" y2="42.95829"/>
<line stroke="hsla(0, 0%, 86%, 0.6610692)" stroke-width="0.21154214px" x1="29.237106" x2="28.636707" y1="42.95829" y2="44.30846"/>
<line stroke="hsla(0, 0%, 86%, 0.5911716)" stroke-width="0.18917492px" x1="28.636707" x2="28.536402" y1="44.30846" y2="43.75686"/>
<line stroke="hsla(0, 0%, 86%, 0.5339418)" stroke-width="0.17086138px" x1="28.536402" x2="28.429028" y1="43.75686" y2="43.29325"/>
<line stroke="hsla(0, 0%, 86%, 0.6668577)" stroke-width="0.21339446px" x1="28.429028" x2="27.900105" y1="43.29325" y2="44.127083"/>
<line stroke="hsla(0, 0%, 86%, 0.578448)" stroke-width="0.18510336px" x1="27.900105" x2="27.87705" y1="44.127083" y2="43.444836"/>
<line stroke="hsla(0, 0%, 86%, 0.67028725)" stroke-width="0.21449192px" x1="27.87705" x2="27.415379" y1="43.444836" y2="43.978703"/>
<line stroke="hsla(0, 0%, 86%, 0.60135627)" stroke-width="0.192434px" x1="27.415379" x2="27.366135" y1="43.978703" y2="43.425865"/>
<line stroke="hsla(0, 0%, 86%, 0.6616766)" stroke-width="0.2117365px" x1="27.366135" x2="26.970152" y1="43.425865" y2="43.731247"/>
<line stroke="hsla(0, 0%, 86%, 0.67692816)" stroke-width="0.216617px" x1="26.970152" x2="26.6941" y1="43.731247" y2="43.729633"/>
<line stroke="hsla(0, 0%, 86%, 0.65617067)" stroke-width="0.2099746px" x1="26.6941" x2="26.527666" y1="43.729633" y2="43.487587"/>
<line stroke="hsla(0, 0%, 86%, 0.62922174)" stroke-width="0.20135096px" x1="26.527666" x2="26.388664" y1="43.487587" y2="43.20374"/>
<line stroke="hsla(0, 0%, 86%, 0.71415627)" stroke-width="0.22853px" x1="26.388664" x2="25.8838" y1="43.20374" y2="43.63195"/>
<line stroke="hsla(0, 0%, 86%, 0.6281285)" stroke-width="0.20100112px" x1="25.8838" x2="25.954222" y1="43.63195" y2="42.96641"/>
<line stroke="hsla(0, 0%, 86%, 0.7210795)" stroke-width="0.23074545px" x1="25.954222" x2="25.404114" y1="42.96641" y2="43.424408"/>
<line stroke="hsla(0, 0%, 86%, 0.54817307)" stroke-width="0.17541538px" x1="25.404114" x2="25.82333" y1="43.424408" y2="42.226234"/>
<line stroke="hsla(0, 0%, 86%, 0.6547943)" stroke-width="0.20953417px" x1="25.82333" x2="25.212692" y1="42.226234" y2="42.751347"/>
<line stroke="hsla(0, 0%, 86%, 0.6044012)" stroke-width="0.19340837px" x1="25.212692" x2="25.201313" y1="42.751347" y2="42.31223"/>
<line stroke="hsla(0, 0%, 86%, 0.6953085)" stroke-width="0.22249871px" x1="25.201313" x2="24.627901" y1="42.31223" y2="42.715126"/>
<line stroke="hsla(0, 0%, 86%, 0.55046767)" stroke-width="0.17614965px" x1="24.627901" x2="25.025602" y1="42.715126" y2="41.720078"/>
<line stroke="hsla(0, 0%, 86%, 0.6202582)" stroke-width="0.19848262px" x1="25.025602" x2="24.53397" y1="41.720078" y2="41.982788"/>
<line stroke="hsla(0, 0%, 86%, 0.6771792)" stroke-width="0.21669735px" x1="24.53397" x2="24.086306" y1="41.982788" y2="42.156616"/>
<line stroke="hsla(0, 0%, 86%, 0.6514302)" stroke-width="0.20845765px" x1="24.086306" x2="24.003998" y1="42.156616" y2="41.85432"/>
<line stroke="hsla(0, 0%, 86%, 0.63387966)" stroke-width="0.20284149px" x1="24.003998" x2="23.89241" y1="41.85432" y2="41.597885"/>
<line stroke="hsla(0, 0%, 86%, 0.68965304)" stroke-width="0.22068897px" x1="23.89241" x2="23.43922" y1="41.597885" y2="41.73742"/>
<line stroke="hsla(0, 0%, 86%, 0.6264614)" stroke-width="0.20046765px" x1="23.43922" x2="23.55561" y1="41.73742" y2="41.23068"/>
<line stroke="hsla(0, 0%, 86%, 0.7102683)" stroke-width="0.22728586px" x1="23.55561" x2="22.958878" y1="41.23068" y2="41.499123"/>
<line stroke="hsla(0, 0%, 86%, 0.5961399)" stroke-width="0.19076477px" x1="22.958878" x2="23.351135" y1="41.499123" y2="40.73473"/>
<line stroke="hsla(0, 0%, 86%, 0.74805045)" stroke-width="0.23937614px" x1="23.351135" x2="22.395473" y1="40.73473" y2="41.324005"/>
<line stroke="hsla(0, 0%, 86%, 0.6443831)" stroke-width="0.20620258px" x1="22.395473" x2="22.75885" y1="41.324005" y2="40.6232"/>
<line stroke="hsla(0, 0%, 86%, 0.63825727)" stroke-width="0.20424232px" x1="22.75885" x2="22.62312" y1="40.6232" y2="40.409492"/>
<line stroke="hsla(0, 0%, 86%, 0.6919061)" stroke-width="0.22140995px" x1="22.62312" x2="22.166199" y1="40.409492" y2="40.474754"/>
<line stroke="hsla(0, 0%, 86%, 0.7122679)" stroke-width="0.22792572px" x1="22.166199" x2="21.887756" y1="40.474754" y2="40.372307"/>
<line stroke="hsla(0, 0%, 86%, 0.68441516)" stroke-width="0.21901284px" x1="21.887756" x2="21.88128" y1="40.372307" y2="40.046074"/>
<line stroke="hsla(0, 0%, 86%, 0.65069264)" stroke-width="0.20822164px" x1="21.88128" x2="21.917282" y1="40.046074" y2="39.697254"/>
<line stroke="hsla(0, 0%, 86%, 0.64026207)" stroke-width="0.20488386px" x1="21.917282" x2="21.827757" y1="39.697254" y2="39.452164"/>
<line stroke="hsla(0, 0%, 86%, 0.6585438)" stroke-width="0.21073402px" x1="21.827757" x2="21.57481" y1="39.452164" y2="39.32541"/>
<line stroke="hsla(0, 0%, 86%, 0.63609654)" stroke-width="0.20355089px" x1="21.57481" x2="21.566162" y1="39.32541" y2="39.027718"/>
<line stroke="hsla(0, 0%, 86%, 0.76512843)" stroke-width="0.2448411px" x1="21.566162" x2="20.648705" y1="39.027718" y2="39.323875"/>
<line stroke="hsla(0, 0%, 86%, 0.57627285)" stroke-width="0.18440731px" x1="20.648705" x2="21.663145" y1="39.323875" y2="38.3837"/>
<line stroke="hsla(0, 0%, 86%, 0.7112887)" stroke-width="0.22761238px" x1="21.663145" x2="20.702007" y1="38.3837" y2="38.672577"/>
<line stroke="hsla(0, 0%, 86%, 0.6054607)" stroke-width="0.19374742px" x1="20.702007" x2="21.23599" y1="38.672577" y2="38.073616"/>
<line stroke="hsla(0, 0%, 86%, 0.6382218)" stroke-width="0.20423096px" x1="21.23599" x2="20.91041" y1="38.073616" y2="37.9716"/>
<line stroke="hsla(0, 0%, 86%, 0.6899814)" stroke-width="0.22079404px" x1="20.91041" x2="20.463043" y1="37.9716" y2="37.921505"/>
<line stroke="hsla(0, 0%, 86%, 0.71192944)" stroke-width="0.22781742px" x1="20.463043" x2="20.206318" y1="37.921505" y2="37.76178"/>
<line stroke="hsla(0, 0%, 86%, 0.6555082)" stroke-width="0.20976263px" x1="20.206318" x2="20.463238" y1="37.76178" y2="37.35657"/>
<line stroke="hsla(0, 0%, 86%, 0.64176583)" stroke-width="0.20536506px" x1="20.463238" x2="20.450209" y1="37.35657" y2="37.087704"/>
<line stroke="hsla(0, 0%, 86%, 0.6363403)" stroke-width="0.2036289px" x1="20.450209" x2="20.387999" y1="37.087704" y2="36.843483"/>
<line stroke="hsla(0, 0%, 86%, 0.6870997)" stroke-width="0.2198719px" x1="20.387999" x2="19.954556" y1="36.843483" y2="36.74712"/>
<line stroke="hsla(0, 0%, 86%, 0.6327071)" stroke-width="0.20246628px" x1="19.954556" x2="20.230236" y1="36.74712" y2="36.37184"/>
<line stroke="hsla(0, 0%, 86%, 0.7303843)" stroke-width="0.23372297px" x1="20.230236" x2="19.482183" y1="36.37184" y2="36.370262"/>
<line stroke="hsla(0, 0%, 86%, 0.51994807)" stroke-width="0.16638337px" x1="19.482183" x2="20.83834" y1="36.370262" y2="35.65104"/>
<line stroke="hsla(0, 0%, 86%, 0.7452784)" stroke-width="0.23848909px" x1="20.83834" x2="19.21674" y1="35.65104" y2="35.90363"/>
<line stroke="hsla(0, 0%, 86%, 0.64135987)" stroke-width="0.20523515px" x1="19.21674" x2="19.861881" y1="35.90363" y2="35.44597"/>
<line stroke="hsla(0, 0%, 86%, 0.6575519)" stroke-width="0.2104166px" x1="19.861881" x2="19.683409" y1="35.44597" y2="35.2351"/>
<line stroke="hsla(0, 0%, 86%, 0.6884461)" stroke-width="0.22030275px" x1="19.683409" x2="19.405682" y1="35.2351" y2="35.043373"/>
<line stroke="hsla(0, 0%, 86%, 0.74330896)" stroke-width="0.23785886px" x1="19.405682" x2="18.962292" y1="35.043373" y2="34.87913"/>
<line stroke="hsla(0, 0%, 86%, 0.7072807)" stroke-width="0.22632982px" x1="18.962292" x2="19.16231" y1="34.87913" y2="34.57006"/>
<line stroke="hsla(0, 0%, 86%, 0.6102019)" stroke-width="0.19526461px" x1="19.16231" x2="19.801983" y1="34.57006" y2="34.19228"/>
<line stroke="hsla(0, 0%, 86%, 0.5973205)" stroke-width="0.19114256px" x1="19.801983" x2="19.852642" y1="34.19228" y2="33.936256"/>
<line stroke="hsla(0, 0%, 86%, 0.65908355)" stroke-width="0.21090673px" x1="19.852642" x2="19.37631" y1="33.936256" y2="33.75719"/>
<line stroke="hsla(0, 0%, 86%, 0.628055)" stroke-width="0.2009776px" x1="19.37631" x2="19.565895" y1="33.75719" y2="33.481014"/>
<line stroke="hsla(0, 0%, 86%, 0.74094236)" stroke-width="0.23710155px" x1="19.565895" x2="18.730234" y1="33.481014" y2="33.31523"/>
<line stroke="hsla(0, 0%, 86%, 0.5199983)" stroke-width="0.16639945px" x1="18.730234" x2="20.292671" y1="33.31523" y2="32.927204"/>
<line stroke="hsla(0, 0%, 86%, 0.7454425)" stroke-width="0.2385416px" x1="20.292671" x2="18.65629" y1="32.927204" y2="32.791878"/>
<line stroke="hsla(0, 0%, 86%, 0.63927186)" stroke-width="0.20456699px" x1="18.65629" x2="19.407082" y1="32.791878" y2="32.49789"/>
<line stroke="hsla(0, 0%, 86%, 0.66323066)" stroke-width="0.21223381px" x1="19.407082" x2="19.227234" y1="32.49789" y2="32.252403"/>
<line stroke="hsla(0, 0%, 86%, 0.6880584)" stroke-width="0.22017868px" x1="19.227234" x2="19.045979" y1="32.252403" y2="32"/>
<line stroke="hsla(0, 0%, 86%, 0.7178608)" stroke-width="0.22971545px" x1="19.045979" x2="18.833973" y1="32" y2="31.739824"/>
<line stroke="hsla(0, 0%, 86%, 0.65649)" stroke-width="0.21007681px" x1="18.833973" x2="19.283207" y1="31.739824" y2="31.497211"/>
<line stroke="hsla(0, 0%, 86%, 0.69750136)" stroke-width="0.22320043px" x1="19.283207" x2="19.000862" y1="31.497211" y2="31.228565"/>
<line stroke="hsla(0, 0%, 86%, 0.6556603)" stroke-width="0.20981129px" x1="19.000862" x2="19.318954" y1="31.228565" y2="30.995678"/>
<line stroke="hsla(0, 0%, 86%, 0.70282805)" stroke-width="0.22490497px" x1="19.318954" x2="19.00332" y1="30.995678" y2="30.711834"/>
<line stroke="hsla(0, 0%, 86%, 0.65479004)" stroke-width="0.20953281px" x1="19.00332" x2="19.374752" y1="30.711834" y2="30.496218"/>
<line stroke="hsla(0, 0%, 86%, 0.77189225)" stroke-width="0.2470055px" x1="19.374752" x2="18.571844" y1="30.496218" y2="30.130827"/>
<line stroke="hsla(0, 0%, 86%, 0.5344076)" stroke-width="0.17101043px" x1="18.571844" x2="20.299969" y1="30.130827" y2="30.135048"/>
<line stroke="hsla(0, 0%, 86%, 0.7510953)" stroke-width="0.24035048px" x1="20.299969" x2="18.803547" y1="30.135048" y2="29.628275"/>
<line stroke="hsla(0, 0%, 86%, 0.64590055)" stroke-width="0.20668817px" x1="18.803547" x2="19.59565" y1="29.628275" y2="29.516695"/>
<line stroke="hsla(0, 0%, 86%, 0.69114494)" stroke-width="0.22116637px" x1="19.59565" x2="19.329037" y1="29.516695" y2="29.201857"/>
<line stroke="hsla(0, 0%, 86%, 0.69604445)" stroke-width="0.22273421px" x1="19.329037" x2="19.352505" y1="29.201857" y2="28.943777"/>
<line stroke="hsla(0, 0%, 86%, 0.72028077)" stroke-width="0.23048984px" x1="19.352505" x2="19.246578" y1="28.943777" y2="28.650162"/>
<line stroke="hsla(0, 0%, 86%, 0.695483)" stroke-width="0.22255456px" x1="19.246578" x2="19.48701" y1="28.650162" y2="28.447603"/>
<line stroke="hsla(0, 0%, 86%, 0.65600127)" stroke-width="0.2099204px" x1="19.48701" x2="19.831509" y1="28.447603" y2="28.284101"/>
<line stroke="hsla(0, 0%, 86%, 0.62916577)" stroke-width="0.20133305px" x1="19.831509" x2="20.090942" y1="28.284101" y2="28.104479"/>
<line stroke="hsla(0, 0%, 86%, 0.7031566)" stroke-width="0.2250101px" x1="20.090942" x2="19.667267" y1="28.104479" y2="27.694357"/>
<line stroke="hsla(0, 0%, 86%, 0.631894)" stroke-width="0.20220608px" x1="19.667267" x2="20.235725" y1="27.694357" y2="27.630196"/>
<line stroke="hsla(0, 0%, 86%, 0.7558628)" stroke-width="0.24187608px" x1="20.235725" x2="19.493942" y1="27.630196" y2="27.071354"/>
<line stroke="hsla(0, 0%, 86%, 0.57370996)" stroke-width="0.18358718px" x1="19.493942" x2="20.804184" y1="27.071354" y2="27.330109"/>
<line stroke="hsla(0, 0%, 86%, 0.77703935)" stroke-width="0.24865259px" x1="20.804184" x2="19.558884" y1="27.330109" y2="26.519665"/>
<line stroke="hsla(0, 0%, 86%, 0.6914841)" stroke-width="0.22127491px" x1="19.558884" x2="20.228302" y1="26.519665" y2="26.534344"/>
<line stroke="hsla(0, 0%, 86%, 0.7273742)" stroke-width="0.23275974px" x1="20.228302" x2="20.106401" y1="26.534344" y2="26.189407"/>
<line stroke="hsla(0, 0%, 86%, 0.72749835)" stroke-width="0.23279947px" x1="20.106401" x2="20.22273" y1="26.189407" y2="25.955147"/>
<line stroke="hsla(0, 0%, 86%, 0.74742943)" stroke-width="0.2391774px" x1="20.22273" x2="20.21811" y1="25.955147" y2="25.655602"/>
<line stroke="hsla(0, 0%, 86%, 0.6783377)" stroke-width="0.21706806px" x1="20.21811" x2="20.779005" y1="25.655602" y2="25.66853"/>
<line stroke="hsla(0, 0%, 86%, 0.685615)" stroke-width="0.2193968px" x1="20.779005" x2="20.861172" y1="25.66853" y2="25.421421"/>
<line stroke="hsla(0, 0%, 86%, 0.67421204)" stroke-width="0.21574785px" x1="20.861172" x2="21.063173" y1="25.421421" y2="25.245775"/>
<line stroke="hsla(0, 0%, 86%, 0.74151534)" stroke-width="0.2372849px" x1="21.063173" x2="20.791567" y1="25.245775" y2="24.768293"/>
<line stroke="hsla(0, 0%, 86%, 0.6685763)" stroke-width="0.2139444px" x1="20.791567" x2="21.372204" y1="24.768293" y2="24.84164"/>
<line stroke="hsla(0, 0%, 86%, 0.7810859)" stroke-width="0.24994749px" x1="21.372204" x2="20.852905" y1="24.84164" y2="24.16733"/>
<line stroke="hsla(0, 0%, 86%, 0.54891235)" stroke-width="0.17565195px" x1="20.852905" x2="22.35833" y1="24.16733" y2="24.936535"/>
<line stroke="hsla(0, 0%, 86%, 0.7766815)" stroke-width="0.24853806px" x1="22.35833" x2="21.196255" y1="24.936535" y2="23.752308"/>
<line stroke="hsla(0, 0%, 86%, 0.6915494)" stroke-width="0.2212958px" x1="21.196255" x2="21.841076" y1="23.752308" y2="23.921959"/>
<line stroke="hsla(0, 0%, 86%, 0.7276632)" stroke-width="0.23285222px" x1="21.841076" x2="21.802376" y1="23.921959" y2="23.557"/>
<line stroke="hsla(0, 0%, 86%, 0.72769)" stroke-width="0.23286079px" x1="21.802376" x2="21.971027" y1="23.557" y2="23.357048"/>
<line stroke="hsla(0, 0%, 86%, 0.7469001)" stroke-width="0.23900802px" x1="21.971027" x2="22.04078" y1="23.357048" y2="23.068243"/>
<line stroke="hsla(0, 0%, 86%, 0.6785061)" stroke-width="0.21712194px" x1="22.04078" x2="22.579224" y1="23.068243" y2="23.209179"/>
<line stroke="hsla(0, 0%, 86%, 0.6848442)" stroke-width="0.21915014px" x1="22.579224" x2="22.722" y1="23.209179" y2="22.992985"/>
<line stroke="hsla(0, 0%, 86%, 0.6737539)" stroke-width="0.21560125px" x1="22.722" x2="22.95795" y1="22.992985" y2="22.868174"/>
<line stroke="hsla(0, 0%, 86%, 0.7416256)" stroke-width="0.23732018px" x1="22.95795" x2="22.803225" y1="22.868174" y2="22.337337"/>
<line stroke="hsla(0, 0%, 86%, 0.6683228)" stroke-width="0.2138633px" x1="22.803225" x2="23.35217" y1="22.337337" y2="22.546934"/>
<line stroke="hsla(0, 0%, 86%, 0.7799798)" stroke-width="0.24959354px" x1="23.35217" x2="23.009808" y1="22.546934" y2="21.77415"/>
<line stroke="hsla(0, 0%, 86%, 0.53584564)" stroke-width="0.1714706px" x1="23.009808" x2="24.347895" y1="21.77415" y2="22.941326"/>
<line stroke="hsla(0, 0%, 86%, 0.6210752)" stroke-width="0.19874406px" x1="24.347895" x2="24.141708" y1="22.941326" y2="22.315395"/>
<line stroke="hsla(0, 0%, 86%, 0.6895817)" stroke-width="0.22066614px" x1="24.141708" x2="24.031422" y1="22.315395" y2="21.772943"/>
<line stroke="hsla(0, 0%, 86%, 0.5197177)" stroke-width="0.16630965px" x1="24.031422" x2="24.967522" y1="21.772943" y2="22.596912"/>
<line stroke="hsla(0, 0%, 86%, 0.6167742)" stroke-width="0.19736774px" x1="24.967522" x2="24.747284" y1="22.596912" y2="21.892033"/>
<line stroke="hsla(0, 0%, 86%, 0.64311033)" stroke-width="0.2057953px" x1="24.747284" x2="24.840929" y1="21.892033" y2="21.594494"/>
<line stroke="hsla(0, 0%, 86%, 0.51318645)" stroke-width="0.16421966px" x1="24.840929" x2="25.562803" y1="21.594494" y2="22.236076"/>
<line stroke="hsla(0, 0%, 86%, 0.6187747)" stroke-width="0.1980079px" x1="25.562803" x2="25.351135" y1="22.236076" y2="21.467949"/>
<line stroke="hsla(0, 0%, 86%, 0.58550656)" stroke-width="0.18736209px" x1="25.351135" x2="25.684357" y1="21.467949" y2="21.543678"/>
<line stroke="hsla(0, 0%, 86%, 0.5430659)" stroke-width="0.17378108px" x1="25.684357" x2="26.044964" y1="21.543678" y2="21.685572"/>
<line stroke="hsla(0, 0%, 86%, 0.52591664)" stroke-width="0.16829333px" x1="26.044964" x2="26.30952" y1="21.685572" y2="21.678062"/>
<line stroke="hsla(0, 0%, 86%, 0.63434625)" stroke-width="0.2029908px" x1="26.30952" x2="26.151236" y1="21.678062" y2="20.876656"/>
<line stroke="hsla(0, 0%, 86%, 0.54005075)" stroke-width="0.17281623px" x1="26.151236" x2="26.676176" y1="20.876656" y2="21.37032"/>
<line stroke="hsla(0, 0%, 86%, 0.6209119)" stroke-width="0.1986918px" x1="26.676176" x2="26.636845" y1="21.37032" y2="20.7416"/>
<line stroke="hsla(0, 0%, 86%, 0.68944025)" stroke-width="0.22062087px" x1="26.636845" x2="26.656971" y1="20.7416" y2="20.188286"/>
<line stroke="hsla(0, 0%, 86%, 0.51975393)" stroke-width="0.16632125px" x1="26.656971" x2="27.372824" y1="20.188286" y2="21.207912"/>
<line stroke="hsla(0, 0%, 86%, 0.6172676)" stroke-width="0.19752564px" x1="27.372824" x2="27.323078" y1="21.207912" y2="20.467972"/>
<line stroke="hsla(0, 0%, 86%, 0.64254093)" stroke-width="0.20561309px" x1="27.323078" x2="27.48679" y1="20.467972" y2="20.207874"/>
<line stroke="hsla(0, 0%, 86%, 0.5133918)" stroke-width="0.16428538px" x1="27.48679" x2="28.035809" y1="20.207874" y2="20.995844"/>
<line stroke="hsla(0, 0%, 86%, 0.6186506)" stroke-width="0.1979682px" x1="28.035809" x2="28.011269" y1="20.995844" y2="20.201727"/>
<line stroke="hsla(0, 0%, 86%, 0.5854179)" stroke-width="0.18733373px" x1="28.011269" x2="28.317287" y1="20.201727" y2="20.353367"/>
<line stroke="hsla(0, 0%, 86%, 0.54309684)" stroke-width="0.17379099px" x1="28.317287" x2="28.634218" y1="20.353367" y2="20.575172"/>
<line stroke="hsla(0, 0%, 86%, 0.52602756)" stroke-width="0.16832882px" x1="28.634218" x2="28.892996" y1="20.575172" y2="20.629456"/>
<line stroke="hsla(0, 0%, 86%, 0.63422436)" stroke-width="0.20295179px" x1="28.892996" x2="28.927797" y1="20.629456" y2="19.81491"/>
<line stroke="hsla(0, 0%, 86%, 0.5387096)" stroke-width="0.17238706px" x1="28.927797" x2="29.324062" y1="19.81491" y2="20.42662"/>
<line stroke="hsla(0, 0%, 86%, 0.5948187)" stroke-width="0.19034198px" x1="29.324062" x2="29.470028" y1="20.42662" y2="19.98069"/>
<line stroke="hsla(0, 0%, 86%, 0.6394621)" stroke-width="0.20462787px" x1="29.470028" x2="29.648008" y1="19.98069" y2="19.617264"/>
<line stroke="hsla(0, 0%, 86%, 0.6384202)" stroke-width="0.20429447px" x1="29.648008" x2="29.89437" y1="19.617264" y2="19.580608"/>
<line stroke="hsla(0, 0%, 86%, 0.6443192)" stroke-width="0.20618214px" x1="29.89437" x2="30.13388" y1="19.580608" y2="19.499424"/>
<line stroke="hsla(0, 0%, 86%, 0.6001199)" stroke-width="0.19203836px" x1="30.13388" x2="30.421978" y1="19.499424" y2="19.78061"/>
<line stroke="hsla(0, 0%, 86%, 0.64632845)" stroke-width="0.20682509px" x1="30.421978" x2="30.627625" y1="19.78061" y2="19.421078"/>
<line stroke="hsla(0, 0%, 86%, 0.71247536)" stroke-width="0.2279921px" x1="30.627625" x2="30.834131" y1="19.421078" y2="18.922043"/>
<line stroke="hsla(0, 0%, 86%, 0.7508272)" stroke-width="0.2402647px" x1="30.834131" x2="31.073658" y1="18.922043" y2="18.626087"/>
<line stroke="hsla(0, 0%, 86%, 0.726358)" stroke-width="0.23243456px" x1="31.073658" x2="31.346767" y1="18.626087" y2="18.786358"/>
<line stroke="hsla(0, 0%, 86%, 0.7286286)" stroke-width="0.23316114px" x1="31.346767" x2="31.607471" y1="18.786358" y2="18.759691"/>
<line stroke="hsla(0, 0%, 86%, 0.71509093)" stroke-width="0.22882909px" x1="31.607471" x2="31.870106" y1="18.759691" y2="18.851986"/>
<line stroke="hsla(0, 0%, 86%, 0.7630885)" stroke-width="0.24418832px" x1="31.870106" x2="32.13331" y1="18.851986" y2="18.50642"/>
<line stroke="hsla(0, 0%, 86%, 0.6926475)" stroke-width="0.2216472px" x1="32.13331" x2="32.384853" y1="18.50642" y2="19.018642"/>
<line stroke="hsla(0, 0%, 86%, 0.664954)" stroke-width="0.21278527px" x1="32.384853" x2="32.631405" y1="19.018642" y2="19.227928"/>
<line stroke="hsla(0, 0%, 86%, 0.6555616)" stroke-width="0.20977971px" x1="32.631405" x2="32.87895" y1="19.227928" y2="19.31036"/>
<line stroke="hsla(0, 0%, 86%, 0.6656498)" stroke-width="0.21300793px" x1="32.87895" x2="33.135937" y1="19.31036" y2="19.257854"/>
<line stroke="hsla(0, 0%, 86%, 0.66861635)" stroke-width="0.21395724px" x1="33.135937" x2="33.389782" y1="19.257854" y2="19.26155"/>
<line stroke="hsla(0, 0%, 86%, 0.6584589)" stroke-width="0.21070684px" x1="33.389782" x2="33.63182" y1="19.26155" y2="19.364029"/>
<line stroke="hsla(0, 0%, 86%, 0.651512)" stroke-width="0.20848384px" x1="33.63182" x2="33.873768" y1="19.364029" y2="19.448204"/>
<line stroke="hsla(0, 0%, 86%, 0.67425984)" stroke-width="0.21576315px" x1="33.873768" x2="34.14877" y1="19.448204" y2="19.326195"/>
<line stroke="hsla(0, 0%, 86%, 0.63210523)" stroke-width="0.20227367px" x1="34.14877" x2="34.34211" y1="19.326195" y2="19.669304"/>
<line stroke="hsla(0, 0%, 86%, 0.60469675)" stroke-width="0.19350296px" x1="34.34211" x2="34.544624" y1="19.669304" y2="19.911093"/>
<line stroke="hsla(0, 0%, 86%, 0.5781426)" stroke-width="0.18500562px" x1="34.544624" x2="34.7399" y1="19.911093" y2="20.150002"/>
<line stroke="hsla(0, 0%, 86%, 0.5745053)" stroke-width="0.1838417px" x1="34.7399" x2="34.967087" y1="20.150002" y2="20.231842"/>
<line stroke="hsla(0, 0%, 86%, 0.61833143)" stroke-width="0.19786605px" x1="34.967087" x2="35.282185" y1="20.231842" y2="19.98837"/>
<line stroke="hsla(0, 0%, 86%, 0.56076074)" stroke-width="0.17944343px" x1="35.282185" x2="35.401726" y1="19.98837" y2="20.453176"/>
<line stroke="hsla(0, 0%, 86%, 0.68428856)" stroke-width="0.21897234px" x1="35.401726" x2="35.897335" y1="20.453176" y2="19.674622"/>
<line stroke="hsla(0, 0%, 86%, 0.5246971)" stroke-width="0.16790308px" x1="35.897335" x2="35.77208" y1="19.674622" y2="20.84256"/>
<line stroke="hsla(0, 0%, 86%, 0.5369709)" stroke-width="0.17183068px" x1="35.77208" x2="36.021732" y1="20.84256" y2="20.836123"/>
<line stroke="hsla(0, 0%, 86%, 0.6665894)" stroke-width="0.2133086px" x1="36.021732" x2="36.575104" y1="20.836123" y2="20.046165"/>
<line stroke="hsla(0, 0%, 86%, 0.6374438)" stroke-width="0.20398201px" x1="36.575104" x2="36.73152" y1="20.046165" y2="20.333355"/>
<line stroke="hsla(0, 0%, 86%, 0.6252377)" stroke-width="0.20007606px" x1="36.73152" x2="36.926464" y1="20.333355" y2="20.509884"/>
<line stroke="hsla(0, 0%, 86%, 0.6836169)" stroke-width="0.21875739px" x1="36.926464" x2="37.325752" y1="20.509884" y2="20.22649"/>
<line stroke="hsla(0, 0%, 86%, 0.60001117)" stroke-width="0.19200356px" x1="37.325752" x2="37.29844" y1="20.22649" y2="20.877459"/>
<line stroke="hsla(0, 0%, 86%, 0.6400192)" stroke-width="0.20480613px" x1="37.29844" x2="37.646152" y1="20.877459" y2="20.726751"/>
<line stroke="hsla(0, 0%, 86%, 0.5700919)" stroke-width="0.1824294px" x1="37.646152" x2="37.63346" y1="20.726751" y2="21.286133"/>
<line stroke="hsla(0, 0%, 86%, 0.6177569)" stroke-width="0.1976822px" x1="37.63346" x2="38.009727" y1="21.286133" y2="21.098984"/>
<line stroke="hsla(0, 0%, 86%, 0.60514146)" stroke-width="0.19364527px" x1="38.009727" x2="38.17851" y1="21.098984" y2="21.298508"/>
<line stroke="hsla(0, 0%, 86%, 0.6966301)" stroke-width="0.22292164px" x1="38.17851" x2="38.7293" y1="21.298508" y2="20.85882"/>
<line stroke="hsla(0, 0%, 86%, 0.5080621)" stroke-width="0.16257988px" x1="38.7293" x2="38.22334" y1="20.85882" y2="22.142002"/>
<line stroke="hsla(0, 0%, 86%, 0.5645541)" stroke-width="0.18065731px" x1="38.22334" x2="38.64077" y1="22.142002" y2="21.9273"/>
<line stroke="hsla(0, 0%, 86%, 0.6593266)" stroke-width="0.21098451px" x1="38.64077" x2="39.225254" y1="21.9273" y2="21.498304"/>
<line stroke="hsla(0, 0%, 86%, 0.62790596)" stroke-width="0.20092991px" x1="39.225254" x2="39.299442" y1="21.498304" y2="21.826916"/>
<line stroke="hsla(0, 0%, 86%, 0.66077965)" stroke-width="0.21144949px" x1="39.299442" x2="39.64077" y1="21.826916" y2="21.783573"/>
<line stroke="hsla(0, 0%, 86%, 0.7020341)" stroke-width="0.22465092px" x1="39.64077" x2="40.023685" y1="21.783573" y2="21.70222"/>
<line stroke="hsla(0, 0%, 86%, 0.58852106)" stroke-width="0.18832673px" x1="40.023685" x2="39.71061" y1="21.70222" y2="22.497406"/>
<line stroke="hsla(0, 0%, 86%, 0.66409385)" stroke-width="0.21251003px" x1="39.71061" x2="40.247974" y1="22.497406" y2="22.235931"/>
<line stroke="hsla(0, 0%, 86%, 0.58803326)" stroke-width="0.18817064px" x1="40.247974" x2="40.077686" y1="22.235931" y2="22.81208"/>
<line stroke="hsla(0, 0%, 86%, 0.6217988)" stroke-width="0.19897562px" x1="40.077686" x2="40.42173" y1="22.81208" y2="22.79409"/>
<line stroke="hsla(0, 0%, 86%, 0.58581394)" stroke-width="0.18746045px" x1="40.42173" x2="40.423347" y1="22.79409" y2="23.149952"/>
<line stroke="hsla(0, 0%, 86%, 0.6532441)" stroke-width="0.2090381px" x1="40.423347" x2="40.93815" y1="23.149952" y2="22.97311"/>
<line stroke="hsla(0, 0%, 86%, 0.55379)" stroke-width="0.17721279px" x1="40.93815" x2="40.600967" y1="22.97311" y2="23.650246"/>
<line stroke="hsla(0, 0%, 86%, 0.60298467)" stroke-width="0.19295509px" x1="40.600967" x2="41.023224" y1="23.650246" y2="23.580153"/>
<line stroke="hsla(0, 0%, 86%, 0.680155)" stroke-width="0.2176496px" x1="41.023224" x2="41.601456" y1="23.580153" y2="23.3891"/>
<line stroke="hsla(0, 0%, 86%, 0.6282175)" stroke-width="0.2010296px" x1="41.601456" x2="41.486443" y1="23.3891" y2="23.824602"/>
<line stroke="hsla(0, 0%, 86%, 0.66083646)" stroke-width="0.21146767px" x1="41.486443" x2="41.82701" y1="23.824602" y2="23.863846"/>
<line stroke="hsla(0, 0%, 86%, 0.70096964)" stroke-width="0.22431028px" x1="41.82701" x2="42.212013" y1="23.863846" y2="23.879747"/>
<line stroke="hsla(0, 0%, 86%, 0.46344796)" stroke-width="0.14830334px" x1="42.212013" x2="41.011127" y1="23.879747" y2="25.120813"/>
<line stroke="hsla(0, 0%, 86%, 0.6010929)" stroke-width="0.19234972px" x1="41.011127" x2="41.944744" y1="25.120813" y2="24.71451"/>
<line stroke="hsla(0, 0%, 86%, 0.47901285)" stroke-width="0.1532841px" x1="41.944744" x2="41.36756" y1="24.71451" y2="25.417753"/>
<line stroke="hsla(0, 0%, 86%, 0.53523177)" stroke-width="0.17127416px" x1="41.36756" x2="41.8315" y1="25.417753" y2="25.37799"/>
<line stroke="hsla(0, 0%, 86%, 0.46042466)" stroke-width="0.14733589px" x1="41.8315" x2="41.50783" y1="25.37799" y2="25.865532"/>
<line stroke="hsla(0, 0%, 86%, 0.52682483)" stroke-width="0.16858394px" x1="41.50783" x2="42.033936" y1="25.865532" y2="25.80337"/>
<line stroke="hsla(0, 0%, 86%, 0.44606152)" stroke-width="0.14273968px" x1="42.033936" x2="41.653713" y1="25.80337" y2="26.298529"/>
<line stroke="hsla(0, 0%, 86%, 0.73369014)" stroke-width="0.23478083px" x1="41.653713" x2="43.568092" y1="26.298529" y2="25.47268"/>
<line stroke="hsla(0, 0%, 86%, 0.9980702)" stroke-width="0.31938246px" x1="43.568092" x2="45.370785" y1="25.47268" y2="24.800003"/>
<line stroke="hsla(0, 0%, 86%, 0.9203708)" stroke-width="0.29451865px" x1="45.370785" x2="45.012722" y1="24.800003" y2="25.321035"/>
<line stroke="hsla(0, 0%, 86%, 0.7111511)" stroke-width="0.22756836px" x1="45.012722" x2="43.78865" y1="25.321035" y2="26.240683"/>
<line stroke="hsla(0, 0%, 86%, 1.0000305)" stroke-width="0.32000977px" x1="43.78865" x2="45.786636" y1="26.240683" y2="25.598803"/>
<line stroke="hsla(0, 0%, 86%, 0.57149917)" stroke-width="0.18287973px" x1="45.786636" x2="43.086803" y1="25.598803" y2="27.116247"/>
<line stroke="hsla(0, 0%, 86%, 0.35107404)" stroke-width="0.11234369px" x1="43.086803" x2="41.716377" y1="27.116247" y2="27.947203"/>
<line stroke="hsla(0, 0%, 86%, 0.36832875)" stroke-width="0.1178652px" x1="41.716377" x2="41.910133" y1="27.947203" y2="28.094414"/>
<line stroke="hsla(0, 0%, 86%, 0.7182698)" stroke-width="0.22984634px" x1="41.910133" x2="44.347263" y1="28.094414" y2="27.413649"/>
<line stroke="hsla(0, 0%, 86%, 0.35827604)" stroke-width="0.11464833px" x1="44.347263" x2="41.98836" y1="27.413649" y2="28.512835"/>
<line stroke="hsla(0, 0%, 86%, 0.17410432)" stroke-width="0.05571338px" x1="41.98836" x2="40.794983" y1="28.512835" y2="29.123114"/>
<line stroke="hsla(0, 0%, 86%, 0.426995)" stroke-width="0.1366384px" x1="40.794983" x2="42.591534" y1="29.123114" y2="28.765657"/>
<line stroke="hsla(0, 0%, 86%, 0.5875797)" stroke-width="0.1880255px" x1="42.591534" x2="43.76562" y1="28.765657" y2="28.659779"/>
<line stroke="hsla(0, 0%, 86%, 0.15411775)" stroke-width="0.049317677px" x1="43.76562" x2="40.810783" y1="28.659779" y2="29.685743"/>
<line stroke="hsla(0, 0%, 86%, 0.07950013)" stroke-width="0.025440041px" x1="40.810783" x2="40.332573" y1="29.685743" y2="29.986465"/>
<line stroke="hsla(0, 0%, 86%, 0.23070444)" stroke-width="0.07382542px" x1="40.332573" x2="41.433784" y1="29.986465" y2="29.916727"/>
<line stroke="hsla(0, 0%, 86%, 0.32255507)" stroke-width="0.10321762px" x1="41.433784" x2="42.12156" y1="29.916727" y2="29.973703"/>
<line stroke="hsla(0, 0%, 86%, 0.33468255)" stroke-width="0.107098415px" x1="42.12156" x2="42.24556" y1="29.973703" y2="30.158623"/>
<line stroke="hsla(0, 0%, 86%, 0.71389073)" stroke-width="0.22844502px" x1="42.24556" x2="44.9762" y1="30.158623" y2="29.931633"/>
<line stroke="hsla(0, 0%, 86%, 0.49997243)" stroke-width="0.15999117px" x1="44.9762" x2="43.48903" y1="29.931633" y2="30.400753"/>
<line stroke="hsla(0, 0%, 86%, 0.114497855)" stroke-width="0.036639314px" x1="43.48903" x2="40.762447" y1="30.400753" y2="30.956316"/>
<line stroke="hsla(0, 0%, 86%, 0.06305202)" stroke-width="0.020176645px" x1="40.762447" x2="40.412754" y1="30.956316" y2="31.166172"/>
<line stroke="hsla(0, 0%, 86%, 0.031456616)" stroke-width="0.010066117px" x1="40.412754" x2="40.20081" y1="31.166172" y2="31.35051"/>
<line stroke="hsla(0, 0%, 86%, 0.03645268)" stroke-width="0.011664857px" x1="40.20081" x2="40.247948" y1="31.35051" y2="31.510529"/>
<line stroke="hsla(0, 0%, 86%, 0.05844558)" stroke-width="0.018702585px" x1="40.247948" x2="40.414234" y1="31.510529" y2="31.667322"/>
<line stroke="hsla(0, 0%, 86%, 0.023990562)" stroke-width="0.0076769795px" x1="40.414234" x2="40.171135" y1="31.667322" y2="31.838528"/>
<line stroke="hsla(0, 0%, 86%, 0.010266774)" stroke-width="0.0032853677px" x1="40.171135" x2="40.07392" y1="31.838528" y2="32"/>
</svg>
