<svg width="64" height="64" version="1.1" viewBox="0 0 64 64" xmlns="http://www.w3.org/2000/svg">
    <rect fill="none" height="63.96" stroke="hsl(0, 0% 86%)" stroke-width=".12px" width="63.96" x="0.02" y="0.02"/>
    <line stroke="hsla(0, 0%, 86%, 0.21719137)" stroke-width="0.069501236px" x1="41.65256" x2="41.561913" y1="32" y2="32.188953"/>
<line stroke="hsla(0, 0%, 86%, 0.17530264)" stroke-width="0.056096844px" x1="41.561913" x2="41.254948" y1="32.188953" y2="32.365917"/>
<line stroke="hsla(0, 0%, 86%, 0.24426001)" stroke-width="0.0781632px" x1="41.254948" x2="41.741535" y1="32.365917" y2="32.57811"/>
<line stroke="hsla(0, 0%, 86%, 0.15904887)" stroke-width="0.05089564px" x1="41.741535" x2="41.116604" y1="32.57811" y2="32.722023"/>
<line stroke="hsla(0, 0%, 86%, 0.2606256)" stroke-width="0.08340019px" x1="41.116604" x2="41.828346" y1="32.722023" y2="32.974136"/>
<line stroke="hsla(0, 0%, 86%, 0.23668815)" stroke-width="0.0757402px" x1="41.828346" x2="41.636044" y1="32.974136" y2="33.14774"/>
<line stroke="hsla(0, 0%, 86%, 0.28936568)" stroke-width="0.092597015px" x1="41.636044" x2="41.98714" y1="33.14774" y2="33.39019"/>
<line stroke="hsla(0, 0%, 86%, 0.13780166)" stroke-width="0.04409653px" x1="41.98714" x2="40.88007" y1="33.39019" y2="33.41546"/>
<line stroke="hsla(0, 0%, 86%, 0.22973685)" stroke-width="0.07351579px" x1="40.88007" x2="41.501865" y1="33.41546" y2="33.707718"/>
<line stroke="hsla(0, 0%, 86%, 0.17040403)" stroke-width="0.05452929px" x1="41.501865" x2="41.047386" y1="33.707718" y2="33.811256"/>
<line stroke="hsla(0, 0%, 86%, 0.46674865)" stroke-width="0.14935957px" x1="41.047386" x2="43.09332" y1="33.811256" y2="34.44975"/>
<line stroke="hsla(0, 0%, 86%, 0.3629372)" stroke-width="0.1161399px" x1="43.09332" x2="42.316223" y1="34.44975" y2="34.492878"/>
<line stroke="hsla(0, 0%, 86%, 0.37505132)" stroke-width="0.12001642px" x1="42.316223" x2="42.34932" y1="34.492878" y2="34.718372"/>
<line stroke="hsla(0, 0%, 86%, 0.3695716)" stroke-width="0.11826291px" x1="42.34932" x2="42.255634" y1="34.718372" y2="34.911537"/>
<line stroke="hsla(0, 0%, 86%, 0.2585357)" stroke-width="0.082731426px" x1="42.255634" x2="41.431507" y1="34.911537" y2="34.880104"/>
<line stroke="hsla(0, 0%, 86%, 0.31801364)" stroke-width="0.10176436px" x1="41.431507" x2="41.779785" y1="34.880104" y2="35.19902"/>
<line stroke="hsla(0, 0%, 86%, 0.23005472)" stroke-width="0.07361751px" x1="41.779785" x2="41.116756" y1="35.19902" y2="35.182873"/>
<line stroke="hsla(0, 0%, 86%, 0.30545372)" stroke-width="0.09774519px" x1="41.116756" x2="41.560993" y1="35.182873" y2="35.5514"/>
<line stroke="hsla(0, 0%, 86%, 0.22378936)" stroke-width="0.0716126px" x1="41.560993" x2="40.941925" y1="35.5514" y2="35.524017"/>
<line stroke="hsla(0, 0%, 86%, 0.2975483)" stroke-width="0.095215455px" x1="40.941925" x2="41.36069" y1="35.524017" y2="35.90444"/>
<line stroke="hsla(0, 0%, 86%, 0.31016463)" stroke-width="0.09925268px" x1="41.36069" x2="41.364853" y1="35.90444" y2="36.125237"/>
<line stroke="hsla(0, 0%, 86%, 0.30973753)" stroke-width="0.099116005px" x1="41.364853" x2="41.278732" y1="36.125237" y2="36.30816"/>
<line stroke="hsla(0, 0%, 86%, 0.2214663)" stroke-width="0.070869215px" x1="41.278732" x2="40.620758" y1="36.30816" y2="36.211655"/>
<line stroke="hsla(0, 0%, 86%, 0.38600254)" stroke-width="0.123520814px" x1="40.620758" x2="41.58981" y1="36.211655" y2="36.922104"/>
<line stroke="hsla(0, 0%, 86%, 0.29890677)" stroke-width="0.095650166px" x1="41.58981" x2="40.93856" y1="36.922104" y2="36.813297"/>
<line stroke="hsla(0, 0%, 86%, 0.38432035)" stroke-width="0.12298251px" x1="40.93856" x2="41.37732" y1="36.813297" y2="37.291172"/>
<line stroke="hsla(0, 0%, 86%, 0.26009426)" stroke-width="0.08323016px" x1="41.37732" x2="40.50081" y1="37.291172" y2="37.020565"/>
<line stroke="hsla(0, 0%, 86%, 0.41850662)" stroke-width="0.13392211px" x1="40.50081" x2="41.370384" y1="37.020565" y2="37.786842"/>
<line stroke="hsla(0, 0%, 86%, 0.35866812)" stroke-width="0.114773795px" x1="41.370384" x2="40.8922" y1="37.786842" y2="37.737263"/>
<line stroke="hsla(0, 0%, 86%, 0.27605575)" stroke-width="0.08833784px" x1="40.8922" x2="40.283775" y1="37.737263" y2="37.57954"/>
<line stroke="hsla(0, 0%, 86%, 0.3445842)" stroke-width="0.11026694px" x1="40.283775" x2="40.57563" y1="37.57954" y2="38.025787"/>
<line stroke="hsla(0, 0%, 86%, 0.2635295)" stroke-width="0.08432944px" x1="40.57563" x2="39.984123" y1="38.025787" y2="37.849148"/>
<line stroke="hsla(0, 0%, 86%, 0.3425709)" stroke-width="0.10962269px" x1="39.984123" x2="40.31935" y1="37.849148" y2="38.35108"/>
<line stroke="hsla(0, 0%, 86%, 0.21136476)" stroke-width="0.06763672px" x1="40.31935" x2="39.452835" y1="38.35108" y2="37.92625"/>
<line stroke="hsla(0, 0%, 86%, 0.2772018)" stroke-width="0.08870457px" x1="39.452835" x2="39.699417" y1="37.92625" y2="38.37464"/>
<line stroke="hsla(0, 0%, 86%, 0.33477876)" stroke-width="0.1071292px" x1="39.699417" x2="39.886" y1="38.37464" y2="38.796143"/>
<line stroke="hsla(0, 0%, 86%, 0.40770432)" stroke-width="0.13046537px" x1="39.886" x2="40.141083" y1="38.796143" y2="39.301186"/>
<line stroke="hsla(0, 0%, 86%, 0.2731467)" stroke-width="0.08740694px" x1="40.141083" x2="39.28691" y1="39.301186" y2="38.799644"/>
<line stroke="hsla(0, 0%, 86%, 0.36787707)" stroke-width="0.117720656px" x1="39.28691" x2="39.64053" y1="38.799644" y2="39.417374"/>
<line stroke="hsla(0, 0%, 86%, 0.3813519)" stroke-width="0.122032605px" x1="39.64053" x2="39.560753" y1="39.417374" y2="39.635822"/>
<line stroke="hsla(0, 0%, 86%, 0.44654852)" stroke-width="0.14289552px" x1="39.560753" x2="39.732048" y1="39.635822" y2="40.123734"/>
<line stroke="hsla(0, 0%, 86%, 0.41642603)" stroke-width="0.13325633px" x1="39.732048" x2="39.423645" y1="40.123734" y2="40.114887"/>
<line stroke="hsla(0, 0%, 86%, 0.41917956)" stroke-width="0.13413745px" x1="39.423645" x2="39.27496" y1="40.114887" y2="40.274864"/>
<line stroke="hsla(0, 0%, 86%, 0.37316802)" stroke-width="0.11941376px" x1="39.27496" x2="38.89627" y1="40.274864" y2="40.163906"/>
<line stroke="hsla(0, 0%, 86%, 0.32775405)" stroke-width="0.104881294px" x1="38.89627" x2="38.527603" y1="40.163906" y2="40.044655"/>
<line stroke="hsla(0, 0%, 86%, 0.38263574)" stroke-width="0.12244344px" x1="38.527603" x2="38.610256" y1="40.044655" y2="40.483753"/>
<line stroke="hsla(0, 0%, 86%, 0.29745463)" stroke-width="0.09518548px" x1="38.610256" x2="38.07403" y1="40.483753" y2="40.12156"/>
<line stroke="hsla(0, 0%, 86%, 0.34352016)" stroke-width="0.10992645px" x1="38.07403" x2="38.105743" y1="40.12156" y2="40.509457"/>
<line stroke="hsla(0, 0%, 86%, 0.23695073)" stroke-width="0.07582423px" x1="38.105743" x2="37.501514" y1="40.509457" y2="39.99629"/>
<line stroke="hsla(0, 0%, 86%, 0.28419378)" stroke-width="0.09094201px" x1="37.501514" x2="37.529686" y1="39.99629" y2="40.38741"/>
<line stroke="hsla(0, 0%, 86%, 0.3587598)" stroke-width="0.11480313px" x1="37.529686" x2="37.64949" y1="40.38741" y2="40.949"/>
<line stroke="hsla(0, 0%, 86%, 0.41293114)" stroke-width="0.13213797px" x1="37.64949" x2="37.673233" y1="40.949" y2="41.392735"/>
<line stroke="hsla(0, 0%, 86%, 0.3212284)" stroke-width="0.10279309px" x1="37.673233" x2="37.15642" y1="41.392735" y2="40.931187"/>
<line stroke="hsla(0, 0%, 86%, 0.37218943)" stroke-width="0.119100615px" x1="37.15642" x2="37.156105" y1="40.931187" y2="41.352642"/>
<line stroke="hsla(0, 0%, 86%, 0.40083927)" stroke-width="0.12826857px" x1="37.156105" x2="37.06632" y1="41.352642" y2="41.635265"/>
<line stroke="hsla(0, 0%, 86%, 0.34508097)" stroke-width="0.11042591px" x1="37.06632" x2="36.695183" y1="41.635265" y2="41.374527"/>
<line stroke="hsla(0, 0%, 86%, 0.37574658)" stroke-width="0.1202389px" x1="36.695183" x2="36.60401" y1="41.374527" y2="41.66479"/>
<line stroke="hsla(0, 0%, 86%, 0.44006363)" stroke-width="0.14082035px" x1="36.60401" x2="36.60302" y1="41.66479" y2="42.17579"/>
<line stroke="hsla(0, 0%, 86%, 0.36790922)" stroke-width="0.117730945px" x1="36.60302" x2="36.196354" y1="42.17579" y2="41.78727"/>
<line stroke="hsla(0, 0%, 86%, 0.33915186)" stroke-width="0.10852859px" x1="36.196354" x2="35.92435" y1="41.78727" y2="41.676395"/>
<line stroke="hsla(0, 0%, 86%, 0.348303)" stroke-width="0.11145695px" x1="35.92435" x2="35.75596" y1="41.676395" y2="41.813576"/>
<line stroke="hsla(0, 0%, 86%, 0.3005885)" stroke-width="0.096188314px" x1="35.75596" x2="35.4449" y1="41.813576" y2="41.562653"/>
<line stroke="hsla(0, 0%, 86%, 0.40788865)" stroke-width="0.13052437px" x1="35.4449" x2="35.502728" y1="41.562653" y2="42.360718"/>
<line stroke="hsla(0, 0%, 86%, 0.292841)" stroke-width="0.09370911px" x1="35.502728" x2="35.047607" y1="42.360718" y2="41.6381"/>
<line stroke="hsla(0, 0%, 86%, 0.38183758)" stroke-width="0.122188024px" x1="35.047607" x2="35.03767" y1="41.6381" y2="42.31109"/>
<line stroke="hsla(0, 0%, 86%, 0.45037034)" stroke-width="0.1441185px" x1="35.03767" x2="34.96342" y1="42.31109" y2="42.845078"/>
<line stroke="hsla(0, 0%, 86%, 0.47200474)" stroke-width="0.15104151px" x1="34.96342" x2="34.78666" y1="42.845078" y2="43.052547"/>
<line stroke="hsla(0, 0%, 86%, 0.37929767)" stroke-width="0.121375255px" x1="34.78666" x2="34.41738" y1="43.052547" y2="42.455116"/>
<line stroke="hsla(0, 0%, 86%, 0.32911652)" stroke-width="0.10531729px" x1="34.41738" x2="34.135925" y1="42.455116" y2="42.147278"/>
<line stroke="hsla(0, 0%, 86%, 0.40153053)" stroke-width="0.12848976px" x1="34.135925" x2="34.03232" y1="42.147278" y2="42.69972"/>
<line stroke="hsla(0, 0%, 86%, 0.3302317)" stroke-width="0.10567414px" x1="34.03232" x2="33.734715" y1="42.69972" y2="42.231655"/>
<line stroke="hsla(0, 0%, 86%, 0.4513502)" stroke-width="0.14443207px" x1="33.734715" x2="33.660984" y1="42.231655" y2="43.126427"/>
<line stroke="hsla(0, 0%, 86%, 0.42941377)" stroke-width="0.1374124px" x1="33.660984" x2="33.420605" y1="43.126427" y2="43.00043"/>
<line stroke="hsla(0, 0%, 86%, 0.39014772)" stroke-width="0.12484726px" x1="33.420605" x2="33.172325" y1="43.00043" y2="42.7453"/>
<line stroke="hsla(0, 0%, 86%, 0.35755393)" stroke-width="0.114417255px" x1="33.172325" x2="32.93896" y1="42.7453" y2="42.532616"/>
<line stroke="hsla(0, 0%, 86%, 0.36979774)" stroke-width="0.11833527px" x1="32.93896" x2="32.73678" y1="42.532616" y2="42.63706"/>
<line stroke="hsla(0, 0%, 86%, 0.32778096)" stroke-width="0.10488991px" x1="32.73678" x2="32.511536" y1="42.63706" y2="42.34739"/>
<line stroke="hsla(0, 0%, 86%, 0.46106595)" stroke-width="0.1475411px" x1="32.511536" x2="32.335438" y1="42.34739" y2="43.314705"/>
<line stroke="hsla(0, 0%, 86%, 0.38217643)" stroke-width="0.12229645px" x1="32.335438" x2="32.106216" y1="43.314705" y2="42.751144"/>
<line stroke="hsla(0, 0%, 86%, 0.4134657)" stroke-width="0.13230902px" x1="32.106216" x2="31.891558" y1="42.751144" y2="42.976418"/>
<line stroke="hsla(0, 0%, 86%, 0.48549286)" stroke-width="0.1553577px" x1="31.891558" x2="31.659348" y1="42.976418" y2="43.4905"/>
<line stroke="hsla(0, 0%, 86%, 0.33658278)" stroke-width="0.10770649px" x1="31.659348" x2="31.485334" y1="43.4905" y2="42.410683"/>
<line stroke="hsla(0, 0%, 86%, 0.38041422)" stroke-width="0.12173255px" x1="31.485334" x2="31.257942" y1="42.410683" y2="42.713314"/>
<line stroke="hsla(0, 0%, 86%, 0.32684633)" stroke-width="0.104590826px" x1="31.257942" x2="31.08067" y1="42.713314" y2="42.312397"/>
<line stroke="hsla(0, 0%, 86%, 0.4949079)" stroke-width="0.15837052px" x1="31.08067" x2="30.745867" y1="42.312397" y2="43.495125"/>
<line stroke="hsla(0, 0%, 86%, 0.44246852)" stroke-width="0.14158992px" x1="30.745867" x2="30.567358" y1="43.495125" y2="43.09365"/>
<line stroke="hsla(0, 0%, 86%, 0.49993792)" stroke-width="0.15998013px" x1="30.567358" x2="30.287365" y1="43.09365" y2="43.472424"/>
<line stroke="hsla(0, 0%, 86%, 0.46876428)" stroke-width="0.15000457px" x1="30.287365" x2="30.098557" y1="43.472424" y2="43.215057"/>
<line stroke="hsla(0, 0%, 86%, 0.43335494)" stroke-width="0.13867357px" x1="30.098557" x2="29.924925" y1="43.215057" y2="42.92483"/>
<line stroke="hsla(0, 0%, 86%, 0.35841137)" stroke-width="0.11469164px" x1="29.924925" x2="29.820631" y1="42.92483" y2="42.35368"/>
<line stroke="hsla(0, 0%, 86%, 0.385479)" stroke-width="0.12335328px" x1="29.820631" x2="29.572596" y1="42.35368" y2="42.498474"/>
<line stroke="hsla(0, 0%, 86%, 0.37020043)" stroke-width="0.118464135px" x1="29.572596" x2="29.39254" y1="42.498474" y2="42.3418"/>
<line stroke="hsla(0, 0%, 86%, 0.35711098)" stroke-width="0.11427551px" x1="29.39254" x2="29.213566" y1="42.3418" y2="42.197353"/>
<line stroke="hsla(0, 0%, 86%, 0.35977104)" stroke-width="0.11512673px" x1="29.213566" x2="29.007229" y1="42.197353" y2="42.158684"/>
<line stroke="hsla(0, 0%, 86%, 0.351488)" stroke-width="0.112476155px" x1="29.007229" x2="28.825085" y1="42.158684" y2="42.04071"/>
<line stroke="hsla(0, 0%, 86%, 0.47094977)" stroke-width="0.15070392px" x1="28.825085" x2="28.351858" y1="42.04071" y2="42.79084"/>
<line stroke="hsla(0, 0%, 86%, 0.51520956)" stroke-width="0.16486706px" x1="28.351858" x2="28.031368" y1="42.79084" y2="43.016468"/>
<line stroke="hsla(0, 0%, 86%, 0.44126254)" stroke-width="0.14120401px" x1="28.031368" x2="28.004799" y1="43.016468" y2="42.438667"/>
<line stroke="hsla(0, 0%, 86%, 0.37742433)" stroke-width="0.12077578px" x1="28.004799" x2="27.972084" y1="42.438667" y2="41.931755"/>
<line stroke="hsla(0, 0%, 86%, 0.47725114)" stroke-width="0.15272036px" x1="27.972084" x2="27.493414" y1="41.931755" y2="42.51083"/>
<line stroke="hsla(0, 0%, 86%, 0.4915625)" stroke-width="0.1573px" x1="27.493414" x2="27.244162" y1="42.51083" y2="42.513622"/>
<line stroke="hsla(0, 0%, 86%, 0.42973527)" stroke-width="0.13751529px" x1="27.244162" x2="27.228817" y1="42.513622" y2="42.015724"/>
<line stroke="hsla(0, 0%, 86%, 0.45569044)" stroke-width="0.14582095px" x1="27.228817" x2="26.94818" y1="42.015724" y2="42.086597"/>
<line stroke="hsla(0, 0%, 86%, 0.4996604)" stroke-width="0.15989132px" x1="26.94818" x2="26.602543" y1="42.086597" y2="42.265026"/>
<line stroke="hsla(0, 0%, 86%, 0.4589129)" stroke-width="0.14685212px" x1="26.602543" x2="26.542433" y1="42.265026" y2="41.89946"/>
<line stroke="hsla(0, 0%, 86%, 0.39360014)" stroke-width="0.12595204px" x1="26.542433" x2="26.583038" y1="41.89946" y2="41.38245"/>
<line stroke="hsla(0, 0%, 86%, 0.43995962)" stroke-width="0.14078708px" x1="26.583038" x2="26.226152" y1="41.38245" y2="41.55931"/>
<line stroke="hsla(0, 0%, 86%, 0.45424628)" stroke-width="0.1453588px" x1="26.226152" x2="25.983503" y1="41.55931" y2="41.53035"/>
<line stroke="hsla(0, 0%, 86%, 0.42055953)" stroke-width="0.13457905px" x1="25.983503" x2="25.92989" y1="41.53035" y2="41.207127"/>
<line stroke="hsla(0, 0%, 86%, 0.3816452)" stroke-width="0.12212646px" x1="25.92989" x2="25.907978" y1="41.207127" y2="40.854572"/>
<line stroke="hsla(0, 0%, 86%, 0.46077675)" stroke-width="0.14744855px" x1="25.907978" x2="25.402077" y1="40.854572" y2="41.195396"/>
<line stroke="hsla(0, 0%, 86%, 0.43791658)" stroke-width="0.1401333px" x1="25.402077" x2="25.320267" y1="41.195396" y2="40.931435"/>
<line stroke="hsla(0, 0%, 86%, 0.40461662)" stroke-width="0.12947732px" x1="25.320267" x2="25.292473" y1="40.931435" y2="40.608593"/>
<line stroke="hsla(0, 0%, 86%, 0.38767052)" stroke-width="0.124054566px" x1="25.292473" x2="25.200579" y1="40.608593" y2="40.379646"/>
<line stroke="hsla(0, 0%, 86%, 0.5234367)" stroke-width="0.16749975px" x1="25.200579" x2="24.40555" y1="40.379646" y2="40.99042"/>
<line stroke="hsla(0, 0%, 86%, 0.4942054)" stroke-width="0.15814573px" x1="24.40555" x2="24.368372" y1="40.99042" y2="40.680557"/>
<line stroke="hsla(0, 0%, 86%, 0.48358253)" stroke-width="0.1547464px" x1="24.368372" x2="24.249983" y1="40.680557" y2="40.47165"/>
<line stroke="hsla(0, 0%, 86%, 0.45600584)" stroke-width="0.14592187px" x1="24.249983" x2="24.221008" y1="40.47165" y2="40.173058"/>
<line stroke="hsla(0, 0%, 86%, 0.5006018)" stroke-width="0.16019258px" x1="24.221008" x2="23.835129" y1="40.173058" y2="40.245934"/>
<line stroke="hsla(0, 0%, 86%, 0.43391967)" stroke-width="0.1388543px" x1="23.835129" x2="24.01829" y1="40.245934" y2="39.74859"/>
<line stroke="hsla(0, 0%, 86%, 0.35690704)" stroke-width="0.11421025px" x1="24.01829" x2="24.272161" y1="39.74859" y2="39.211082"/>
<line stroke="hsla(0, 0%, 86%, 0.3823047)" stroke-width="0.1223375px" x1="24.272161" x2="23.995064" y1="39.211082" y2="39.17909"/>
<line stroke="hsla(0, 0%, 86%, 0.31088832)" stroke-width="0.09948426px" x1="23.995064" x2="24.2443" y1="39.17909" y2="38.68385"/>
<line stroke="hsla(0, 0%, 86%, 0.3553678)" stroke-width="0.1137177px" x1="24.2443" x2="23.86708" y1="38.68385" y2="38.73355"/>
<line stroke="hsla(0, 0%, 86%, 0.32659972)" stroke-width="0.10451191px" x1="23.86708" x2="23.897755" y1="38.73355" y2="38.44264"/>
<line stroke="hsla(0, 0%, 86%, 0.38419887)" stroke-width="0.12294364px" x1="23.897755" x2="23.442413" y1="38.44264" y2="38.53295"/>
<line stroke="hsla(0, 0%, 86%, 0.3473715)" stroke-width="0.11115888px" x1="23.442413" x2="23.52891" y1="38.53295" y2="38.205902"/>
<line stroke="hsla(0, 0%, 86%, 0.36415353)" stroke-width="0.11652913px" x1="23.52891" x2="23.309088" y1="38.205902" y2="38.106792"/>
<line stroke="hsla(0, 0%, 86%, 0.3253136)" stroke-width="0.10410035px" x1="23.309088" x2="23.422071" y1="38.106792" y2="37.777668"/>
<line stroke="hsla(0, 0%, 86%, 0.4850182)" stroke-width="0.15520582px" x1="23.422071" x2="22.34338" y1="37.777668" y2="38.23047"/>
<line stroke="hsla(0, 0%, 86%, 0.39373222)" stroke-width="0.12599431px" x1="22.34338" x2="22.781384" y1="38.23047" y2="37.693115"/>
<line stroke="hsla(0, 0%, 86%, 0.4429644)" stroke-width="0.1417486px" x1="22.781384" x2="22.365486" y1="37.693115" y2="37.69013"/>
<line stroke="hsla(0, 0%, 86%, 0.36498135)" stroke-width="0.11679403px" x1="22.365486" x2="22.74395" y1="37.69013" y2="37.222748"/>
<line stroke="hsla(0, 0%, 86%, 0.36693606)" stroke-width="0.11741953px" x1="22.74395" x2="22.63018" y1="37.222748" y2="37.045525"/>
<line stroke="hsla(0, 0%, 86%, 0.33495328)" stroke-width="0.10718504px" x1="22.63018" x2="22.737188" y1="37.045525" y2="36.75427"/>
<line stroke="hsla(0, 0%, 86%, 0.3593341)" stroke-width="0.11498691px" x1="22.737188" x2="22.48734" y1="36.75427" y2="36.647392"/>
<line stroke="hsla(0, 0%, 86%, 0.37627313)" stroke-width="0.120407395px" x1="22.48734" x2="22.28676" y1="36.647392" y2="36.509903"/>
<line stroke="hsla(0, 0%, 86%, 0.32778332)" stroke-width="0.10489066px" x1="22.28676" x2="22.519054" y1="36.509903" y2="36.176376"/>
<line stroke="hsla(0, 0%, 86%, 0.35269257)" stroke-width="0.11286162px" x1="22.519054" x2="22.272867" y1="36.176376" y2="36.057285"/>
<line stroke="hsla(0, 0%, 86%, 0.29553854)" stroke-width="0.094572335px" x1="22.272867" x2="22.577457" y1="36.057285" y2="35.713432"/>
<line stroke="hsla(0, 0%, 86%, 0.28101012)" stroke-width="0.08992324px" x1="22.577457" x2="22.603985" y1="35.713432" y2="35.49012"/>
<line stroke="hsla(0, 0%, 86%, 0.2798747)" stroke-width="0.089559905px" x1="22.603985" x2="22.544582" y1="35.49012" y2="35.301105"/>
<line stroke="hsla(0, 0%, 86%, 0.3178182)" stroke-width="0.10170182px" x1="22.544582" x2="22.221554" y1="35.301105" y2="35.19858"/>
<line stroke="hsla(0, 0%, 86%, 0.37793642)" stroke-width="0.12093965px" x1="22.221554" x2="21.746288" y1="35.19858" y2="35.13118"/>
<line stroke="hsla(0, 0%, 86%, 0.43528026)" stroke-width="0.13928968px" x1="21.746288" x2="21.289248" y1="35.13118" y2="35.040745"/>
<line stroke="hsla(0, 0%, 86%, 0.47059792)" stroke-width="0.15059133px" x1="21.289248" x2="20.985317" y1="35.040745" y2="34.89314"/>
<line stroke="hsla(0, 0%, 86%, 0.40263218)" stroke-width="0.1288423px" x1="20.985317" x2="21.405968" y1="34.89314" y2="34.560013"/>
<line stroke="hsla(0, 0%, 86%, 0.32587135)" stroke-width="0.10427883px" x1="21.405968" x2="21.897135" y1="34.560013" y2="34.231026"/>
<line stroke="hsla(0, 0%, 86%, 0.34441817)" stroke-width="0.11021381px" x1="21.897135" x2="21.724089" y1="34.231026" y2="34.0572"/>
<line stroke="hsla(0, 0%, 86%, 0.3486884)" stroke-width="0.11158028px" x1="21.724089" x2="21.65519" y1="34.0572" y2="33.859215"/>
<line stroke="hsla(0, 0%, 86%, 0.35941866)" stroke-width="0.11501397px" x1="21.65519" x2="21.544182" y1="33.859215" y2="33.66663"/>
<line stroke="hsla(0, 0%, 86%, 0.33340067)" stroke-width="0.10668821px" x1="21.544182" x2="21.698833" y1="33.66663" y2="33.433903"/>
<line stroke="hsla(0, 0%, 86%, 0.30460072)" stroke-width="0.09747223px" x1="21.698833" x2="21.878418" y1="33.433903" y2="33.20557"/>
<line stroke="hsla(0, 0%, 86%, 0.33260134)" stroke-width="0.10643242px" x1="21.878418" x2="21.655954" y1="33.20557" y2="33.02525"/>
<line stroke="hsla(0, 0%, 86%, 0.2621088)" stroke-width="0.083874814px" x1="21.655954" x2="22.14368" y1="33.02525" y2="32.78061"/>
<line stroke="hsla(0, 0%, 86%, 0.2724399)" stroke-width="0.08718076px" x1="22.14368" x2="22.055927" y1="32.78061" y2="32.59013"/>
<line stroke="hsla(0, 0%, 86%, 0.28308135)" stroke-width="0.09058603px" x1="22.055927" x2="21.96965" y1="32.59013" y2="32.396572"/>
<line stroke="hsla(0, 0%, 86%, 0.31951737)" stroke-width="0.102245554px" x1="21.96965" x2="21.701485" y1="32.396572" y2="32.20351"/>
<line stroke="hsla(0, 0%, 86%, 0.36398986)" stroke-width="0.11647675px" x1="21.701485" x2="21.379272" y1="32.20351" y2="32"/>
<line stroke="hsla(0, 0%, 86%, 0.41221094)" stroke-width="0.1319075px" x1="21.379272" x2="21.034222" y1="32" y2="31.783302"/>
<line stroke="hsla(0, 0%, 86%, 0.4144578)" stroke-width="0.13262649px" x1="21.034222" x2="21.024479" y1="31.783302" y2="31.566055"/>
<line stroke="hsla(0, 0%, 86%, 0.39526817)" stroke-width="0.12648581px" x1="21.024479" x2="21.173119" y1="31.566055" y2="31.357477"/>
<line stroke="hsla(0, 0%, 86%, 0.3259998)" stroke-width="0.10431993px" x1="21.173119" x2="21.6851" y1="31.357477" y2="31.183073"/>
<line stroke="hsla(0, 0%, 86%, 0.33327737)" stroke-width="0.10664876px" x1="21.6851" x2="21.651112" y1="31.183073" y2="30.97427"/>
<line stroke="hsla(0, 0%, 86%, 0.34938976)" stroke-width="0.111804724px" x1="21.651112" x2="21.558203" y1="30.97427" y2="30.756287"/>
<line stroke="hsla(0, 0%, 86%, 0.34662223)" stroke-width="0.11091911px" x1="21.558203" x2="21.60455" y1="30.756287" y2="30.552975"/>
<line stroke="hsla(0, 0%, 86%, 0.37451068)" stroke-width="0.119843416px" x1="21.60455" x2="21.436872" y1="30.552975" y2="30.316267"/>
<line stroke="hsla(0, 0%, 86%, 0.31890273)" stroke-width="0.102048874px" x1="21.436872" x2="21.866264" y1="30.316267" y2="30.178719"/>
<line stroke="hsla(0, 0%, 86%, 0.38483843)" stroke-width="0.12314829px" x1="21.866264" x2="21.438725" y1="30.178719" y2="29.885672"/>
<line stroke="hsla(0, 0%, 86%, 0.34775892)" stroke-width="0.111282855px" x1="21.438725" x2="21.743252" y1="29.885672" y2="29.734991"/>
<line stroke="hsla(0, 0%, 86%, 0.3468995)" stroke-width="0.11100784px" x1="21.743252" x2="21.796017" y1="29.734991" y2="29.534243"/>
<line stroke="hsla(0, 0%, 86%, 0.28985354)" stroke-width="0.092753135px" x1="21.796017" x2="22.243982" y1="29.534243" y2="29.437466"/>
<line stroke="hsla(0, 0%, 86%, 0.40371686)" stroke-width="0.12918939px" x1="22.243982" x2="21.507866" y1="29.437466" y2="29.021318"/>
<line stroke="hsla(0, 0%, 86%, 0.40283456)" stroke-width="0.12890705px" x1="21.507866" x2="21.574839" y1="29.021318" y2="28.816462"/>
<line stroke="hsla(0, 0%, 86%, 0.42556497)" stroke-width="0.13618079px" x1="21.574839" x2="21.484222" y1="28.816462" y2="28.560228"/>
<line stroke="hsla(0, 0%, 86%, 0.41964865)" stroke-width="0.13428757px" x1="21.484222" x2="21.594452" y1="28.560228" y2="28.36718"/>
<line stroke="hsla(0, 0%, 86%, 0.3773094)" stroke-width="0.120739006px" x1="21.594452" x2="21.954021" y1="28.36718" y2="28.268452"/>
<line stroke="hsla(0, 0%, 86%, 0.3638431)" stroke-width="0.11642979px" x1="21.954021" x2="22.119911" y1="28.268452" y2="28.10625"/>
<line stroke="hsla(0, 0%, 86%, 0.32122952)" stroke-width="0.10279344px" x1="22.119911" x2="22.481943" y1="28.10625" y2="28.02992"/>
<line stroke="hsla(0, 0%, 86%, 0.30697408)" stroke-width="0.0982317px" x1="22.481943" x2="22.656168" y1="28.02992" y2="27.884024"/>
<line stroke="hsla(0, 0%, 86%, 0.3176501)" stroke-width="0.10164803px" x1="22.656168" x2="22.669594" y1="27.884024" y2="27.667849"/>
<line stroke="hsla(0, 0%, 86%, 0.46039674)" stroke-width="0.14732695px" x1="22.669594" x2="21.833542" y1="27.667849" y2="27.033197"/>
<line stroke="hsla(0, 0%, 86%, 0.35709855)" stroke-width="0.11427154px" x1="21.833542" x2="22.595337" y1="27.033197" y2="27.17292"/>
<line stroke="hsla(0, 0%, 86%, 0.3713499)" stroke-width="0.11883196px" x1="22.595337" x2="22.6022" y1="27.17292" y2="26.939404"/>
<line stroke="hsla(0, 0%, 86%, 0.3505811)" stroke-width="0.112185955px" x1="22.6022" x2="22.83425" y1="26.939404" y2="26.828205"/>
<line stroke="hsla(0, 0%, 86%, 0.2642531)" stroke-width="0.08456099px" x1="22.83425" x2="23.473412" y1="26.828205" y2="26.964207"/>
<line stroke="hsla(0, 0%, 86%, 0.3240666)" stroke-width="0.103701316px" x1="23.473412" x2="23.208153" y1="26.964207" y2="26.570444"/>
<line stroke="hsla(0, 0%, 86%, 0.3558017)" stroke-width="0.11385654px" x1="23.208153" x2="23.125145" y1="26.570444" y2="26.273922"/>
<line stroke="hsla(0, 0%, 86%, 0.40673319)" stroke-width="0.13015461px" x1="23.125145" x2="22.935858" y1="26.273922" y2="25.89484"/>
<line stroke="hsla(0, 0%, 86%, 0.46853372)" stroke-width="0.14993079px" x1="22.935858" x2="22.694176" y1="25.89484" y2="25.461128"/>
<line stroke="hsla(0, 0%, 86%, 0.42106566)" stroke-width="0.13474101px" x1="22.694176" x2="23.100883" y1="25.461128" y2="25.480528"/>
<line stroke="hsla(0, 0%, 86%, 0.38180655)" stroke-width="0.12217809px" x1="23.100883" x2="23.456104" y1="25.480528" y2="25.4775"/>
<line stroke="hsla(0, 0%, 86%, 0.39542192)" stroke-width="0.12653501px" x1="23.456104" x2="23.509907" y1="25.4775" y2="25.248959"/>
<line stroke="hsla(0, 0%, 86%, 0.3740199)" stroke-width="0.119686365px" x1="23.509907" x2="23.763641" y1="25.248959" y2="25.180805"/>
<line stroke="hsla(0, 0%, 86%, 0.32727405)" stroke-width="0.10472769px" x1="23.763641" x2="24.15493" y1="25.180805" y2="25.239132"/>
<line stroke="hsla(0, 0%, 86%, 0.3024304)" stroke-width="0.09677772px" x1="24.15493" x2="24.423204" y1="25.239132" y2="25.20488"/>
<line stroke="hsla(0, 0%, 86%, 0.38737255)" stroke-width="0.12395921px" x1="24.423204" x2="24.11179" y1="25.20488" y2="24.639263"/>
<line stroke="hsla(0, 0%, 86%, 0.46088576)" stroke-width="0.14748344px" x1="24.11179" x2="23.878983" y1="24.639263" y2="24.116173"/>
<line stroke="hsla(0, 0%, 86%, 0.36830103)" stroke-width="0.11785633px" x1="23.878983" x2="24.505362" y1="24.116173" y2="24.430948"/>
<line stroke="hsla(0, 0%, 86%, 0.3885493)" stroke-width="0.12433577px" x1="24.505362" x2="24.555855" y1="24.430948" y2="24.178753"/>
<line stroke="hsla(0, 0%, 86%, 0.38051686)" stroke-width="0.12176539px" x1="24.555855" x2="24.750872" y1="24.178753" y2="24.075874"/>
<line stroke="hsla(0, 0%, 86%, 0.46923333)" stroke-width="0.15015467px" x1="24.750872" x2="24.48709" y1="24.075874" y2="23.454477"/>
<line stroke="hsla(0, 0%, 86%, 0.41232628)" stroke-width="0.1319444px" x1="24.48709" x2="24.921791" y1="23.454477" y2="23.620714"/>
<line stroke="hsla(0, 0%, 86%, 0.44780982)" stroke-width="0.14329913px" x1="24.921791" x2="24.92775" y1="23.620714" y2="23.284117"/>
<line stroke="hsla(0, 0%, 86%, 0.48654887)" stroke-width="0.15569563px" x1="24.92775" x2="24.9299" y1="23.284117" y2="22.926071"/>
<line stroke="hsla(0, 0%, 86%, 0.49421215)" stroke-width="0.15814789px" x1="24.9299" x2="25.077507" y1="22.926071" y2="22.743973"/>
<line stroke="hsla(0, 0%, 86%, 0.37359217)" stroke-width="0.11954949px" x1="25.077507" x2="25.76803" y1="22.743973" y2="23.314625"/>
<line stroke="hsla(0, 0%, 86%, 0.41434556)" stroke-width="0.13259058px" x1="25.76803" x2="25.77453" y1="23.314625" y2="22.951458"/>
<line stroke="hsla(0, 0%, 86%, 0.43918815)" stroke-width="0.14054021px" x1="25.77453" x2="25.856064" y1="22.951458" y2="22.680893"/>
<line stroke="hsla(0, 0%, 86%, 0.39907137)" stroke-width="0.12770283px" x1="25.856064" x2="26.195572" y1="22.680893" y2="22.805569"/>
<line stroke="hsla(0, 0%, 86%, 0.39048696)" stroke-width="0.124955826px" x1="26.195572" x2="26.410315" y1="22.805569" y2="22.74559"/>
<line stroke="hsla(0, 0%, 86%, 0.45100573)" stroke-width="0.14432183px" x1="26.410315" x2="26.37638" y1="22.74559" y2="22.259602"/>
<line stroke="hsla(0, 0%, 86%, 0.51342946)" stroke-width="0.16429743px" x1="26.37638" x2="26.352928" y1="22.259602" y2="21.756798"/>
<line stroke="hsla(0, 0%, 86%, 0.3627424)" stroke-width="0.116077565px" x1="26.352928" x2="27.061338" y1="21.756798" y2="22.607515"/>
<line stroke="hsla(0, 0%, 86%, 0.3999163)" stroke-width="0.12797321px" x1="27.061338" x2="27.12801" y1="22.607515" y2="22.27246"/>
<line stroke="hsla(0, 0%, 86%, 0.34282598)" stroke-width="0.10970431px" x1="27.12801" x2="27.497929" y1="22.27246" y2="22.549198"/>
<line stroke="hsla(0, 0%, 86%, 0.46317136)" stroke-width="0.14821483px" x1="27.497929" x2="27.328411" y1="22.549198" y2="21.672623"/>
<line stroke="hsla(0, 0%, 86%, 0.43805245)" stroke-width="0.14017677px" x1="27.328411" x2="27.604631" y1="21.672623" y2="21.748562"/>
<line stroke="hsla(0, 0%, 86%, 0.4563786)" stroke-width="0.14604115px" x1="27.604631" x2="27.758436" y1="21.748562" y2="21.54145"/>
<line stroke="hsla(0, 0%, 86%, 0.53317094)" stroke-width="0.17061469px" x1="27.758436" x2="27.768265" y1="21.54145" y2="20.943314"/>
<line stroke="hsla(0, 0%, 86%, 0.5170339)" stroke-width="0.16545084px" x1="27.768265" x2="28.02692" y1="20.943314" y2="20.971172"/>
<line stroke="hsla(0, 0%, 86%, 0.46653914)" stroke-width="0.14929253px" x1="28.02692" x2="28.36203" y1="20.971172" y2="21.239243"/>
<line stroke="hsla(0, 0%, 86%, 0.46528155)" stroke-width="0.1488901px" x1="28.36203" x2="28.578072" y1="21.239243" y2="21.1781"/>
<line stroke="hsla(0, 0%, 86%, 0.4600151)" stroke-width="0.14720483px" x1="28.578072" x2="28.803263" y1="21.1781" y2="21.148977"/>
<line stroke="hsla(0, 0%, 86%, 0.4022175)" stroke-width="0.1287096px" x1="28.803263" x2="29.127966" y1="21.148977" y2="21.489363"/>
<line stroke="hsla(0, 0%, 86%, 0.3666763)" stroke-width="0.117336415px" x1="29.127966" x2="29.398745" y1="21.489363" y2="21.682802"/>
<line stroke="hsla(0, 0%, 86%, 0.39077613)" stroke-width="0.12504835px" x1="29.398745" x2="29.564005" y1="21.682802" y2="21.464365"/>
<line stroke="hsla(0, 0%, 86%, 0.41646767)" stroke-width="0.13326965px" x1="29.564005" x2="29.734531" y1="21.464365" y2="21.23728"/>
<line stroke="hsla(0, 0%, 86%, 0.37378803)" stroke-width="0.119612165px" x1="29.734531" x2="30.004955" y1="21.23728" y2="21.496517"/>
<line stroke="hsla(0, 0%, 86%, 0.42951623)" stroke-width="0.1374452px" x1="30.004955" x2="30.145794" y1="21.496517" y2="21.063553"/>
<line stroke="hsla(0, 0%, 86%, 0.3471496)" stroke-width="0.11108787px" x1="30.145794" x2="30.44979" y1="21.063553" y2="21.615595"/>
<line stroke="hsla(0, 0%, 86%, 0.51560795)" stroke-width="0.16499454px" x1="30.44979" x2="30.49991" y1="21.615595" y2="20.384083"/>
<line stroke="hsla(0, 0%, 86%, 0.3570255)" stroke-width="0.11424816px" x1="30.49991" x2="30.85354" y1="20.384083" y2="21.491772"/>
<line stroke="hsla(0, 0%, 86%, 0.38244206)" stroke-width="0.122381456px" x1="30.85354" x2="31.04513" y1="21.491772" y2="21.288895"/>
<line stroke="hsla(0, 0%, 86%, 0.48392886)" stroke-width="0.15485723px" x1="31.04513" x2="31.206444" y1="21.288895" y2="20.543163"/>
<line stroke="hsla(0, 0%, 86%, 0.4741074)" stroke-width="0.15171437px" x1="31.206444" x2="31.436445" y1="20.543163" y2="20.60035"/>
<line stroke="hsla(0, 0%, 86%, 0.40505353)" stroke-width="0.12961712px" x1="31.436445" x2="31.67651" y1="20.60035" y2="21.08841"/>
<line stroke="hsla(0, 0%, 86%, 0.39530244)" stroke-width="0.12649678px" x1="31.67651" x2="31.892853" y1="21.08841" y2="21.15435"/>
<line stroke="hsla(0, 0%, 86%, 0.42562965)" stroke-width="0.13620149px" x1="31.892853" x2="32.109306" y1="21.15435" y2="20.936007"/>
<line stroke="hsla(0, 0%, 86%, 0.38232055)" stroke-width="0.12234257px" x1="32.109306" x2="32.31864" y1="20.936007" y2="21.252014"/>
<line stroke="hsla(0, 0%, 86%, 0.37362942)" stroke-width="0.11956141px" x1="32.31864" x2="32.527836" y1="21.252014" y2="21.322906"/>
<line stroke="hsla(0, 0%, 86%, 0.4547607)" stroke-width="0.14552341px" x1="32.527836" x2="32.779045" y1="21.322906" y2="20.75267"/>
<line stroke="hsla(0, 0%, 86%, 0.4757061)" stroke-width="0.15222594px" x1="32.779045" x2="33.0145" y1="20.75267" y2="20.620047"/>
<line stroke="hsla(0, 0%, 86%, 0.36898053)" stroke-width="0.11807377px" x1="33.0145" x2="33.155796" y1="20.620047" y2="21.406204"/>
<line stroke="hsla(0, 0%, 86%, 0.38791218)" stroke-width="0.124131896px" x1="33.155796" x2="33.382336" y1="21.406204" y2="21.295921"/>
<line stroke="hsla(0, 0%, 86%, 0.3540074)" stroke-width="0.11328236px" x1="33.382336" x2="33.557503" y1="21.295921" y2="21.566761"/>
<line stroke="hsla(0, 0%, 86%, 0.43555605)" stroke-width="0.13937794px" x1="33.557503" x2="33.861477" y1="21.566761" y2="21.02068"/>
<line stroke="hsla(0, 0%, 86%, 0.38797432)" stroke-width="0.12415178px" x1="33.861477" x2="34.014107" y1="21.02068" y2="21.396172"/>
<line stroke="hsla(0, 0%, 86%, 0.40630826)" stroke-width="0.13001864px" x1="34.014107" x2="34.250404" y1="21.396172" y2="21.30886"/>
<line stroke="hsla(0, 0%, 86%, 0.48869255)" stroke-width="0.1563816px" x1="34.250404" x2="34.594814" y1="21.30886" y2="20.777487"/>
<line stroke="hsla(0, 0%, 86%, 0.48750487)" stroke-width="0.15600155px" x1="34.594814" x2="34.813946" y1="20.777487" y2="20.839237"/>
<line stroke="hsla(0, 0%, 86%, 0.3867497)" stroke-width="0.1237599px" x1="34.813946" x2="34.84268" y1="20.839237" y2="21.596792"/>
<line stroke="hsla(0, 0%, 86%, 0.44254562)" stroke-width="0.1416146px" x1="34.84268" x2="35.161194" y1="21.596792" y2="21.26963"/>
<line stroke="hsla(0, 0%, 86%, 0.44199264)" stroke-width="0.14143763px" x1="35.161194" x2="35.371376" y1="21.26963" y2="21.337978"/>
<line stroke="hsla(0, 0%, 86%, 0.32254285)" stroke-width="0.103213705px" x1="35.371376" x2="35.305923" y1="21.337978" y2="22.221405"/>
<line stroke="hsla(0, 0%, 86%, 0.3491062)" stroke-width="0.111713976px" x1="35.305923" x2="35.563297" y1="22.221405" y2="22.108692"/>
<line stroke="hsla(0, 0%, 86%, 0.3419341)" stroke-width="0.10941891px" x1="35.563297" x2="35.73957" y1="22.108692" y2="22.229252"/>
<line stroke="hsla(0, 0%, 86%, 0.35091802)" stroke-width="0.112293765px" x1="35.73957" x2="35.956192" y1="22.229252" y2="22.245102"/>
<line stroke="hsla(0, 0%, 86%, 0.27766982)" stroke-width="0.08885434px" x1="35.956192" x2="35.940323" y1="22.245102" y2="22.80988"/>
<line stroke="hsla(0, 0%, 86%, 0.3982153)" stroke-width="0.12742889px" x1="35.940323" x2="36.478836" y1="22.80988" y2="22.09874"/>
<line stroke="hsla(0, 0%, 86%, 0.40276894)" stroke-width="0.12888606px" x1="36.478836" x2="36.687683" y1="22.09874" y2="22.159561"/>
<line stroke="hsla(0, 0%, 86%, 0.33394763)" stroke-width="0.10686324px" x1="36.687683" x2="36.65929" y1="22.159561" y2="22.697147"/>
<line stroke="hsla(0, 0%, 86%, 0.27081755)" stroke-width="0.086661614px" x1="36.65929" x2="36.63064" y1="22.697147" y2="23.193329"/>
<line stroke="hsla(0, 0%, 86%, 0.38892773)" stroke-width="0.12445687px" x1="36.63064" x2="37.214294" y1="23.193329" y2="22.541819"/>
<line stroke="hsla(0, 0%, 86%, 0.47409862)" stroke-width="0.15171155px" x1="37.214294" x2="37.706757" y1="22.541819" y2="22.11561"/>
<line stroke="hsla(0, 0%, 86%, 0.38545376)" stroke-width="0.1233452px" x1="37.706757" x2="37.57095" y1="22.11561" y2="22.776611"/>
<line stroke="hsla(0, 0%, 86%, 0.3783737)" stroke-width="0.12107959px" x1="37.57095" x2="37.724876" y1="22.776611" y2="22.931583"/>
<line stroke="hsla(0, 0%, 86%, 0.4688715)" stroke-width="0.15003888px" x1="37.724876" x2="38.261574" y1="22.931583" y2="22.502462"/>
<line stroke="hsla(0, 0%, 86%, 0.43336684)" stroke-width="0.13867739px" x1="38.261574" x2="38.3031" y1="22.502462" y2="22.83863"/>
<line stroke="hsla(0, 0%, 86%, 0.32731372)" stroke-width="0.10474039px" x1="38.3031" x2="38.03772" y1="22.83863" y2="23.58535"/>
<line stroke="hsla(0, 0%, 86%, 0.3630413)" stroke-width="0.116173215px" x1="38.03772" x2="38.356857" y1="23.58535" y2="23.500284"/>
<line stroke="hsla(0, 0%, 86%, 0.34039703)" stroke-width="0.10892705px" x1="38.356857" x2="38.42334" y1="23.500284" y2="23.756142"/>
<line stroke="hsla(0, 0%, 86%, 0.6600318)" stroke-width="0.21121018px" x1="38.42334" x2="40.035027" y1="23.756142" y2="22.097591"/>
<line stroke="hsla(0, 0%, 86%, 0.4575361)" stroke-width="0.14641155px" x1="40.035027" x2="39.288265" y1="22.097591" y2="23.37205"/>
<line stroke="hsla(0, 0%, 86%, 0.5894914)" stroke-width="0.18863726px" x1="39.288265" x2="40.084618" y1="23.37205" y2="22.804197"/>
<line stroke="hsla(0, 0%, 86%, 0.5458911)" stroke-width="0.17468515px" x1="40.084618" x2="40.052826" y1="22.804197" y2="23.197342"/>
<line stroke="hsla(0, 0%, 86%, 0.3872494)" stroke-width="0.12391981px" x1="40.052826" x2="39.437695" y1="23.197342" y2="24.185534"/>
<line stroke="hsla(0, 0%, 86%, 0.29038188)" stroke-width="0.092922196px" x1="39.437695" x2="39.099907" y1="24.185534" y2="24.829605"/>
<line stroke="hsla(0, 0%, 86%, 0.5696486)" stroke-width="0.18228756px" x1="39.099907" x2="40.682896" y1="24.829605" y2="23.570711"/>
<line stroke="hsla(0, 0%, 86%, 0.61989194)" stroke-width="0.19836542px" x1="40.682896" x2="41.112225" y1="23.570711" y2="23.4971"/>
<line stroke="hsla(0, 0%, 86%, 0.57564133)" stroke-width="0.18420522px" x1="41.112225" x2="41.04125" y1="23.4971" y2="23.891514"/>
<line stroke="hsla(0, 0%, 86%, 0.60158914)" stroke-width="0.19250852px" x1="41.04125" x2="41.34121" y1="23.891514" y2="23.949764"/>
<line stroke="hsla(0, 0%, 86%, 0.60694563)" stroke-width="0.1942226px" x1="41.34121" x2="41.528137" y1="23.949764" y2="24.111294"/>
<line stroke="hsla(0, 0%, 86%, 1.0000305)" stroke-width="0.32000977px" x1="41.528137" x2="43.897377" y1="24.111294" y2="22.539604"/>
<line stroke="hsla(0, 0%, 86%, 0.41802907)" stroke-width="0.1337693px" x1="43.897377" x2="40.751198" y1="22.539604" y2="25.319246"/>
<line stroke="hsla(0, 0%, 86%, 0.70661217)" stroke-width="0.22611588px" x1="40.751198" x2="42.557617" y1="25.319246" y2="24.26552"/>
<line stroke="hsla(0, 0%, 86%, 0.61969256)" stroke-width="0.19830161px" x1="42.557617" x2="42.196316" y1="24.26552" y2="24.835417"/>
<line stroke="hsla(0, 0%, 86%, 0.60099477)" stroke-width="0.19231832px" x1="42.196316" x2="42.22422" y1="24.835417" y2="25.113476"/>
<line stroke="hsla(0, 0%, 86%, 0.6367132)" stroke-width="0.20374823px" x1="42.22422" x2="42.57438" y1="25.113476" y2="25.177391"/>
<line stroke="hsla(0, 0%, 86%, 0.57291263)" stroke-width="0.18333204px" x1="42.57438" x2="42.31627" y1="25.177391" y2="25.629011"/>
<line stroke="hsla(0, 0%, 86%, 0.78117406)" stroke-width="0.2499757px" x1="42.31627" x2="43.731247" y1="25.629011" y2="25.071539"/>
<line stroke="hsla(0, 0%, 86%, 0.7256042)" stroke-width="0.23219334px" x1="43.731247" x2="43.517387" y1="25.071539" y2="25.50129"/>
<line stroke="hsla(0, 0%, 86%, 0.29463708)" stroke-width="0.094283864px" x1="43.517387" x2="40.91149" y1="25.50129" y2="27.201275"/>
<line stroke="hsla(0, 0%, 86%, 0.41312775)" stroke-width="0.13220088px" x1="40.91149" x2="41.76356" y1="27.201275" y2="26.988714"/>
<line stroke="hsla(0, 0%, 86%, 0.4772319)" stroke-width="0.15271421px" x1="41.76356" x2="42.275368" y1="26.988714" y2="26.979992"/>
<line stroke="hsla(0, 0%, 86%, 0.36900452)" stroke-width="0.11808144px" x1="42.275368" x2="41.66577" y1="26.979992" y2="27.512138"/>
<line stroke="hsla(0, 0%, 86%, 0.5597786)" stroke-width="0.17912914px" x1="41.66577" x2="43.009575" y1="27.512138" y2="27.150265"/>
<line stroke="hsla(0, 0%, 86%, 0.6153147)" stroke-width="0.19690071px" x1="43.009575" x2="43.472286" y1="27.150265" y2="27.214796"/>
<line stroke="hsla(0, 0%, 86%, 0.66919297)" stroke-width="0.21414174px" x1="43.472286" x2="43.9255" y1="27.214796" y2="27.30016"/>
<line stroke="hsla(0, 0%, 86%, 0.49780503)" stroke-width="0.1592976px" x1="43.9255" x2="42.859253" y1="27.30016" y2="27.966366"/>
<line stroke="hsla(0, 0%, 86%, 0.56384194)" stroke-width="0.18042941px" x1="42.859253" x2="43.385723" y1="27.966366" y2="28.024984"/>
<line stroke="hsla(0, 0%, 86%, 0.47346792)" stroke-width="0.15150973px" x1="43.385723" x2="42.84359" y1="28.024984" y2="28.453005"/>
<line stroke="hsla(0, 0%, 86%, 0.37521476)" stroke-width="0.12006872px" x1="42.84359" x2="42.23497" y1="28.453005" y2="28.87454"/>
<line stroke="hsla(0, 0%, 86%, 0.30499893)" stroke-width="0.097599655px" x1="42.23497" x2="41.808388" y1="28.87454" y2="29.215431"/>
<line stroke="hsla(0, 0%, 86%, 0.5882762)" stroke-width="0.18824838px" x1="41.808388" x2="43.83417" y1="29.215431" y2="28.891615"/>
<line stroke="hsla(0, 0%, 86%, 0.40990198)" stroke-width="0.13116863px" x1="43.83417" x2="42.64491" y1="28.891615" y2="29.427696"/>
<line stroke="hsla(0, 0%, 86%, 0.38423404)" stroke-width="0.12295489px" x1="42.64491" x2="42.51319" y1="29.427696" y2="29.67836"/>
<line stroke="hsla(0, 0%, 86%, 0.29029068)" stroke-width="0.09289302px" x1="42.51319" x2="41.893776" y1="29.67836" y2="30.019304"/>
<line stroke="hsla(0, 0%, 86%, 0.43066755)" stroke-width="0.13781361px" x1="41.893776" x2="42.92575" y1="30.019304" y2="30.036377"/>
<line stroke="hsla(0, 0%, 86%, 0.34773678)" stroke-width="0.11127576px" x1="42.92575" x2="42.37276" y1="30.036377" y2="30.346613"/>
<line stroke="hsla(0, 0%, 86%, 0.33642825)" stroke-width="0.10765704px" x1="42.37276" x2="42.322754" y1="30.346613" y2="30.563095"/>
<line stroke="hsla(0, 0%, 86%, 0.36067763)" stroke-width="0.11541684px" x1="42.322754" x2="42.5225" y1="30.563095" y2="30.746677"/>
<line stroke="hsla(0, 0%, 86%, 0.22837298)" stroke-width="0.07307935px" x1="42.5225" x2="41.59726" y1="30.746677" y2="31.04877"/>
<line stroke="hsla(0, 0%, 86%, 0.21998307)" stroke-width="0.07039458px" x1="41.59726" x2="41.553963" y1="31.04877" y2="31.243341"/>
<line stroke="hsla(0, 0%, 86%, 0.20865026)" stroke-width="0.06676808px" x1="41.553963" x2="41.485596" y1="31.243341" y2="31.43708"/>
<line stroke="hsla(0, 0%, 86%, 0.15535913)" stroke-width="0.049714923px" x1="41.485596" x2="41.111465" y1="31.43708" y2="31.639755"/>
<line stroke="hsla(0, 0%, 86%, 0.0767418)" stroke-width="0.024557376px" x1="41.111465" x2="40.550873" y1="31.639755" y2="31.831024"/>
<line stroke="hsla(0, 0%, 86%, 0.060894355)" stroke-width="0.019486193px" x1="40.550873" x2="40.43844" y1="31.831024" y2="32"/>
</svg>
